%TF.GenerationSoftware,KiCad,Pcbnew,6.0.11-2627ca5db0~126~ubuntu22.04.1*%
%TF.CreationDate,2023-02-15T16:19:53+03:00*%
%TF.ProjectId,train_barrier,74726169-6e5f-4626-9172-726965722e6b,rev?*%
%TF.SameCoordinates,Original*%
%TF.FileFunction,Legend,Top*%
%TF.FilePolarity,Positive*%
%FSLAX46Y46*%
G04 Gerber Fmt 4.6, Leading zero omitted, Abs format (unit mm)*
G04 Created by KiCad (PCBNEW 6.0.11-2627ca5db0~126~ubuntu22.04.1) date 2023-02-15 16:19:53*
%MOMM*%
%LPD*%
G01*
G04 APERTURE LIST*
%ADD10C,0.150000*%
%ADD11C,0.120000*%
G04 APERTURE END LIST*
D10*
G36*
X116200000Y-30800000D02*
G01*
X114600000Y-30800000D01*
X115400000Y-29200000D01*
X116200000Y-30800000D01*
G37*
X116200000Y-30800000D02*
X114600000Y-30800000D01*
X115400000Y-29200000D01*
X116200000Y-30800000D01*
X78000000Y-47800000D02*
X79200000Y-47800000D01*
X98250000Y-47400000D02*
X98250000Y-48200000D01*
X114500000Y-29100000D02*
X116300000Y-29100000D01*
X83200000Y-47800000D02*
X84400000Y-47800000D01*
X96070000Y-47400000D02*
X98250000Y-47400000D01*
X82200000Y-48200000D02*
X83400000Y-48200000D01*
X79000000Y-48200000D02*
X80200000Y-48200000D01*
X84200000Y-48200000D02*
X85400000Y-48200000D01*
X83800000Y-47800000D02*
X83800000Y-47400000D01*
G36*
X116200000Y-35800000D02*
G01*
X114600000Y-35800000D01*
X115400000Y-34200000D01*
X116200000Y-35800000D01*
G37*
X116200000Y-35800000D02*
X114600000Y-35800000D01*
X115400000Y-34200000D01*
X116200000Y-35800000D01*
X77000000Y-48200000D02*
X78200000Y-48200000D01*
X78600000Y-47800000D02*
X78600000Y-47400000D01*
X114500000Y-34100000D02*
X116300000Y-34100000D01*
X96070000Y-48200000D02*
X96070000Y-47400000D01*
X123638095Y-41700000D02*
X123542857Y-41652380D01*
X123400000Y-41652380D01*
X123257142Y-41700000D01*
X123161904Y-41795238D01*
X123114285Y-41890476D01*
X123066666Y-42080952D01*
X123066666Y-42223809D01*
X123114285Y-42414285D01*
X123161904Y-42509523D01*
X123257142Y-42604761D01*
X123400000Y-42652380D01*
X123495238Y-42652380D01*
X123638095Y-42604761D01*
X123685714Y-42557142D01*
X123685714Y-42223809D01*
X123495238Y-42223809D01*
X124114285Y-42652380D02*
X124114285Y-41652380D01*
X124685714Y-42652380D01*
X124685714Y-41652380D01*
X125161904Y-42652380D02*
X125161904Y-41652380D01*
X125400000Y-41652380D01*
X125542857Y-41700000D01*
X125638095Y-41795238D01*
X125685714Y-41890476D01*
X125733333Y-42080952D01*
X125733333Y-42223809D01*
X125685714Y-42414285D01*
X125638095Y-42509523D01*
X125542857Y-42604761D01*
X125400000Y-42652380D01*
X125161904Y-42652380D01*
%TO.C,C3*%
X97433333Y-31957142D02*
X97385714Y-32004761D01*
X97242857Y-32052380D01*
X97147619Y-32052380D01*
X97004761Y-32004761D01*
X96909523Y-31909523D01*
X96861904Y-31814285D01*
X96814285Y-31623809D01*
X96814285Y-31480952D01*
X96861904Y-31290476D01*
X96909523Y-31195238D01*
X97004761Y-31100000D01*
X97147619Y-31052380D01*
X97242857Y-31052380D01*
X97385714Y-31100000D01*
X97433333Y-31147619D01*
X97766666Y-31052380D02*
X98385714Y-31052380D01*
X98052380Y-31433333D01*
X98195238Y-31433333D01*
X98290476Y-31480952D01*
X98338095Y-31528571D01*
X98385714Y-31623809D01*
X98385714Y-31861904D01*
X98338095Y-31957142D01*
X98290476Y-32004761D01*
X98195238Y-32052380D01*
X97909523Y-32052380D01*
X97814285Y-32004761D01*
X97766666Y-31957142D01*
%TO.C,R6*%
X128833333Y-27252380D02*
X128500000Y-26776190D01*
X128261904Y-27252380D02*
X128261904Y-26252380D01*
X128642857Y-26252380D01*
X128738095Y-26300000D01*
X128785714Y-26347619D01*
X128833333Y-26442857D01*
X128833333Y-26585714D01*
X128785714Y-26680952D01*
X128738095Y-26728571D01*
X128642857Y-26776190D01*
X128261904Y-26776190D01*
X129690476Y-26252380D02*
X129500000Y-26252380D01*
X129404761Y-26300000D01*
X129357142Y-26347619D01*
X129261904Y-26490476D01*
X129214285Y-26680952D01*
X129214285Y-27061904D01*
X129261904Y-27157142D01*
X129309523Y-27204761D01*
X129404761Y-27252380D01*
X129595238Y-27252380D01*
X129690476Y-27204761D01*
X129738095Y-27157142D01*
X129785714Y-27061904D01*
X129785714Y-26823809D01*
X129738095Y-26728571D01*
X129690476Y-26680952D01*
X129595238Y-26633333D01*
X129404761Y-26633333D01*
X129309523Y-26680952D01*
X129261904Y-26728571D01*
X129214285Y-26823809D01*
%TO.C,SW1*%
X71466666Y-50204761D02*
X71609523Y-50252380D01*
X71847619Y-50252380D01*
X71942857Y-50204761D01*
X71990476Y-50157142D01*
X72038095Y-50061904D01*
X72038095Y-49966666D01*
X71990476Y-49871428D01*
X71942857Y-49823809D01*
X71847619Y-49776190D01*
X71657142Y-49728571D01*
X71561904Y-49680952D01*
X71514285Y-49633333D01*
X71466666Y-49538095D01*
X71466666Y-49442857D01*
X71514285Y-49347619D01*
X71561904Y-49300000D01*
X71657142Y-49252380D01*
X71895238Y-49252380D01*
X72038095Y-49300000D01*
X72371428Y-49252380D02*
X72609523Y-50252380D01*
X72800000Y-49538095D01*
X72990476Y-50252380D01*
X73228571Y-49252380D01*
X74133333Y-50252380D02*
X73561904Y-50252380D01*
X73847619Y-50252380D02*
X73847619Y-49252380D01*
X73752380Y-49395238D01*
X73657142Y-49490476D01*
X73561904Y-49538095D01*
%TO.C,C5*%
X76633333Y-33157142D02*
X76585714Y-33204761D01*
X76442857Y-33252380D01*
X76347619Y-33252380D01*
X76204761Y-33204761D01*
X76109523Y-33109523D01*
X76061904Y-33014285D01*
X76014285Y-32823809D01*
X76014285Y-32680952D01*
X76061904Y-32490476D01*
X76109523Y-32395238D01*
X76204761Y-32300000D01*
X76347619Y-32252380D01*
X76442857Y-32252380D01*
X76585714Y-32300000D01*
X76633333Y-32347619D01*
X77538095Y-32252380D02*
X77061904Y-32252380D01*
X77014285Y-32728571D01*
X77061904Y-32680952D01*
X77157142Y-32633333D01*
X77395238Y-32633333D01*
X77490476Y-32680952D01*
X77538095Y-32728571D01*
X77585714Y-32823809D01*
X77585714Y-33061904D01*
X77538095Y-33157142D01*
X77490476Y-33204761D01*
X77395238Y-33252380D01*
X77157142Y-33252380D01*
X77061904Y-33204761D01*
X77014285Y-33157142D01*
%TO.C,M1*%
X129390476Y-42452380D02*
X129390476Y-41452380D01*
X129723809Y-42166666D01*
X130057142Y-41452380D01*
X130057142Y-42452380D01*
X131057142Y-42452380D02*
X130485714Y-42452380D01*
X130771428Y-42452380D02*
X130771428Y-41452380D01*
X130676190Y-41595238D01*
X130580952Y-41690476D01*
X130485714Y-41738095D01*
%TO.C,C2*%
X102833333Y-31757142D02*
X102785714Y-31804761D01*
X102642857Y-31852380D01*
X102547619Y-31852380D01*
X102404761Y-31804761D01*
X102309523Y-31709523D01*
X102261904Y-31614285D01*
X102214285Y-31423809D01*
X102214285Y-31280952D01*
X102261904Y-31090476D01*
X102309523Y-30995238D01*
X102404761Y-30900000D01*
X102547619Y-30852380D01*
X102642857Y-30852380D01*
X102785714Y-30900000D01*
X102833333Y-30947619D01*
X103214285Y-30947619D02*
X103261904Y-30900000D01*
X103357142Y-30852380D01*
X103595238Y-30852380D01*
X103690476Y-30900000D01*
X103738095Y-30947619D01*
X103785714Y-31042857D01*
X103785714Y-31138095D01*
X103738095Y-31280952D01*
X103166666Y-31852380D01*
X103785714Y-31852380D01*
%TO.C,C6*%
X107433333Y-54357142D02*
X107385714Y-54404761D01*
X107242857Y-54452380D01*
X107147619Y-54452380D01*
X107004761Y-54404761D01*
X106909523Y-54309523D01*
X106861904Y-54214285D01*
X106814285Y-54023809D01*
X106814285Y-53880952D01*
X106861904Y-53690476D01*
X106909523Y-53595238D01*
X107004761Y-53500000D01*
X107147619Y-53452380D01*
X107242857Y-53452380D01*
X107385714Y-53500000D01*
X107433333Y-53547619D01*
X108290476Y-53452380D02*
X108100000Y-53452380D01*
X108004761Y-53500000D01*
X107957142Y-53547619D01*
X107861904Y-53690476D01*
X107814285Y-53880952D01*
X107814285Y-54261904D01*
X107861904Y-54357142D01*
X107909523Y-54404761D01*
X108004761Y-54452380D01*
X108195238Y-54452380D01*
X108290476Y-54404761D01*
X108338095Y-54357142D01*
X108385714Y-54261904D01*
X108385714Y-54023809D01*
X108338095Y-53928571D01*
X108290476Y-53880952D01*
X108195238Y-53833333D01*
X108004761Y-53833333D01*
X107909523Y-53880952D01*
X107861904Y-53928571D01*
X107814285Y-54023809D01*
%TO.C,R10*%
X109607142Y-41202380D02*
X109273809Y-40726190D01*
X109035714Y-41202380D02*
X109035714Y-40202380D01*
X109416666Y-40202380D01*
X109511904Y-40250000D01*
X109559523Y-40297619D01*
X109607142Y-40392857D01*
X109607142Y-40535714D01*
X109559523Y-40630952D01*
X109511904Y-40678571D01*
X109416666Y-40726190D01*
X109035714Y-40726190D01*
X110559523Y-41202380D02*
X109988095Y-41202380D01*
X110273809Y-41202380D02*
X110273809Y-40202380D01*
X110178571Y-40345238D01*
X110083333Y-40440476D01*
X109988095Y-40488095D01*
X111178571Y-40202380D02*
X111273809Y-40202380D01*
X111369047Y-40250000D01*
X111416666Y-40297619D01*
X111464285Y-40392857D01*
X111511904Y-40583333D01*
X111511904Y-40821428D01*
X111464285Y-41011904D01*
X111416666Y-41107142D01*
X111369047Y-41154761D01*
X111273809Y-41202380D01*
X111178571Y-41202380D01*
X111083333Y-41154761D01*
X111035714Y-41107142D01*
X110988095Y-41011904D01*
X110940476Y-40821428D01*
X110940476Y-40583333D01*
X110988095Y-40392857D01*
X111035714Y-40297619D01*
X111083333Y-40250000D01*
X111178571Y-40202380D01*
%TO.C,U1*%
X92638095Y-32852380D02*
X92638095Y-33661904D01*
X92685714Y-33757142D01*
X92733333Y-33804761D01*
X92828571Y-33852380D01*
X93019047Y-33852380D01*
X93114285Y-33804761D01*
X93161904Y-33757142D01*
X93209523Y-33661904D01*
X93209523Y-32852380D01*
X94209523Y-33852380D02*
X93638095Y-33852380D01*
X93923809Y-33852380D02*
X93923809Y-32852380D01*
X93828571Y-32995238D01*
X93733333Y-33090476D01*
X93638095Y-33138095D01*
%TO.C,D3*%
X129461904Y-39652380D02*
X129461904Y-38652380D01*
X129700000Y-38652380D01*
X129842857Y-38700000D01*
X129938095Y-38795238D01*
X129985714Y-38890476D01*
X130033333Y-39080952D01*
X130033333Y-39223809D01*
X129985714Y-39414285D01*
X129938095Y-39509523D01*
X129842857Y-39604761D01*
X129700000Y-39652380D01*
X129461904Y-39652380D01*
X130366666Y-38652380D02*
X130985714Y-38652380D01*
X130652380Y-39033333D01*
X130795238Y-39033333D01*
X130890476Y-39080952D01*
X130938095Y-39128571D01*
X130985714Y-39223809D01*
X130985714Y-39461904D01*
X130938095Y-39557142D01*
X130890476Y-39604761D01*
X130795238Y-39652380D01*
X130509523Y-39652380D01*
X130414285Y-39604761D01*
X130366666Y-39557142D01*
%TO.C,Q5*%
X110104761Y-35947619D02*
X110009523Y-35900000D01*
X109914285Y-35804761D01*
X109771428Y-35661904D01*
X109676190Y-35614285D01*
X109580952Y-35614285D01*
X109628571Y-35852380D02*
X109533333Y-35804761D01*
X109438095Y-35709523D01*
X109390476Y-35519047D01*
X109390476Y-35185714D01*
X109438095Y-34995238D01*
X109533333Y-34900000D01*
X109628571Y-34852380D01*
X109819047Y-34852380D01*
X109914285Y-34900000D01*
X110009523Y-34995238D01*
X110057142Y-35185714D01*
X110057142Y-35519047D01*
X110009523Y-35709523D01*
X109914285Y-35804761D01*
X109819047Y-35852380D01*
X109628571Y-35852380D01*
X110961904Y-34852380D02*
X110485714Y-34852380D01*
X110438095Y-35328571D01*
X110485714Y-35280952D01*
X110580952Y-35233333D01*
X110819047Y-35233333D01*
X110914285Y-35280952D01*
X110961904Y-35328571D01*
X111009523Y-35423809D01*
X111009523Y-35661904D01*
X110961904Y-35757142D01*
X110914285Y-35804761D01*
X110819047Y-35852380D01*
X110580952Y-35852380D01*
X110485714Y-35804761D01*
X110438095Y-35757142D01*
%TO.C,J1*%
X104991666Y-50652380D02*
X104991666Y-51366666D01*
X104944047Y-51509523D01*
X104848809Y-51604761D01*
X104705952Y-51652380D01*
X104610714Y-51652380D01*
X105991666Y-51652380D02*
X105420238Y-51652380D01*
X105705952Y-51652380D02*
X105705952Y-50652380D01*
X105610714Y-50795238D01*
X105515476Y-50890476D01*
X105420238Y-50938095D01*
%TO.C,D2*%
X114661904Y-32852380D02*
X114661904Y-31852380D01*
X114900000Y-31852380D01*
X115042857Y-31900000D01*
X115138095Y-31995238D01*
X115185714Y-32090476D01*
X115233333Y-32280952D01*
X115233333Y-32423809D01*
X115185714Y-32614285D01*
X115138095Y-32709523D01*
X115042857Y-32804761D01*
X114900000Y-32852380D01*
X114661904Y-32852380D01*
X115614285Y-31947619D02*
X115661904Y-31900000D01*
X115757142Y-31852380D01*
X115995238Y-31852380D01*
X116090476Y-31900000D01*
X116138095Y-31947619D01*
X116185714Y-32042857D01*
X116185714Y-32138095D01*
X116138095Y-32280952D01*
X115566666Y-32852380D01*
X116185714Y-32852380D01*
%TO.C,D1*%
X119861904Y-54052380D02*
X119861904Y-53052380D01*
X120100000Y-53052380D01*
X120242857Y-53100000D01*
X120338095Y-53195238D01*
X120385714Y-53290476D01*
X120433333Y-53480952D01*
X120433333Y-53623809D01*
X120385714Y-53814285D01*
X120338095Y-53909523D01*
X120242857Y-54004761D01*
X120100000Y-54052380D01*
X119861904Y-54052380D01*
X121385714Y-54052380D02*
X120814285Y-54052380D01*
X121100000Y-54052380D02*
X121100000Y-53052380D01*
X121004761Y-53195238D01*
X120909523Y-53290476D01*
X120814285Y-53338095D01*
X117761904Y-47366666D02*
X118238095Y-47366666D01*
X117666666Y-47652380D02*
X118000000Y-46652380D01*
X118333333Y-47652380D01*
%TO.C,Q3*%
X113304761Y-28747619D02*
X113209523Y-28700000D01*
X113114285Y-28604761D01*
X112971428Y-28461904D01*
X112876190Y-28414285D01*
X112780952Y-28414285D01*
X112828571Y-28652380D02*
X112733333Y-28604761D01*
X112638095Y-28509523D01*
X112590476Y-28319047D01*
X112590476Y-27985714D01*
X112638095Y-27795238D01*
X112733333Y-27700000D01*
X112828571Y-27652380D01*
X113019047Y-27652380D01*
X113114285Y-27700000D01*
X113209523Y-27795238D01*
X113257142Y-27985714D01*
X113257142Y-28319047D01*
X113209523Y-28509523D01*
X113114285Y-28604761D01*
X113019047Y-28652380D01*
X112828571Y-28652380D01*
X113590476Y-27652380D02*
X114209523Y-27652380D01*
X113876190Y-28033333D01*
X114019047Y-28033333D01*
X114114285Y-28080952D01*
X114161904Y-28128571D01*
X114209523Y-28223809D01*
X114209523Y-28461904D01*
X114161904Y-28557142D01*
X114114285Y-28604761D01*
X114019047Y-28652380D01*
X113733333Y-28652380D01*
X113638095Y-28604761D01*
X113590476Y-28557142D01*
D11*
%TO.C,C3*%
X98110000Y-28859420D02*
X98110000Y-29140580D01*
X97090000Y-28859420D02*
X97090000Y-29140580D01*
%TO.C,R6*%
X126027064Y-27535000D02*
X125572936Y-27535000D01*
X126027064Y-26065000D02*
X125572936Y-26065000D01*
%TO.C,SW1*%
X75800000Y-48250000D02*
X74550000Y-48250000D01*
X86700000Y-53750000D02*
X81150000Y-53750000D01*
X85650000Y-48550000D02*
X85650000Y-49300000D01*
X74850000Y-49300000D02*
X76650000Y-49300000D01*
X78150000Y-48550000D02*
X78150000Y-49300000D01*
X76650000Y-48550000D02*
X74850000Y-48550000D01*
X87460000Y-54510000D02*
X87460000Y-48540000D01*
X74850000Y-50800000D02*
X75600000Y-50800000D01*
X74550000Y-48250000D02*
X74550000Y-49500000D01*
X86700000Y-50800000D02*
X86700000Y-53750000D01*
X85650000Y-49300000D02*
X87450000Y-49300000D01*
X87450000Y-49300000D02*
X87450000Y-48550000D01*
X84150000Y-48550000D02*
X78150000Y-48550000D01*
X87450000Y-48550000D02*
X85650000Y-48550000D01*
X74850000Y-48550000D02*
X74850000Y-49300000D01*
X74840000Y-48540000D02*
X74840000Y-54510000D01*
X84150000Y-49300000D02*
X84150000Y-48550000D01*
X87460000Y-48540000D02*
X74840000Y-48540000D01*
X75600000Y-50800000D02*
X75600000Y-53750000D01*
X74840000Y-54510000D02*
X87460000Y-54510000D01*
X78150000Y-49300000D02*
X84150000Y-49300000D01*
X87450000Y-50800000D02*
X86700000Y-50800000D01*
X75600000Y-53750000D02*
X81150000Y-53750000D01*
X76650000Y-49300000D02*
X76650000Y-48550000D01*
%TO.C,C5*%
X79310000Y-32659420D02*
X79310000Y-32940580D01*
X78290000Y-32659420D02*
X78290000Y-32940580D01*
%TO.C,M1*%
X125375000Y-46650000D02*
X124625000Y-46650000D01*
X124625000Y-43350000D02*
X124625000Y-45150000D01*
X124625000Y-51650000D02*
X124625000Y-53450000D01*
X124625000Y-50150000D02*
X125375000Y-50150000D01*
X126875000Y-43350000D02*
X126875000Y-44100000D01*
X125375000Y-51650000D02*
X124625000Y-51650000D01*
X124625000Y-53450000D02*
X125375000Y-53450000D01*
X124625000Y-45150000D02*
X125375000Y-45150000D01*
X124325000Y-52500000D02*
X124325000Y-53750000D01*
X126875000Y-44100000D02*
X129825000Y-44100000D01*
X130585000Y-43340000D02*
X124615000Y-43340000D01*
X124325000Y-53750000D02*
X125575000Y-53750000D01*
X125375000Y-43350000D02*
X124625000Y-43350000D01*
X125375000Y-50150000D02*
X125375000Y-46650000D01*
X130585000Y-53460000D02*
X130585000Y-43340000D01*
X124625000Y-46650000D02*
X124625000Y-50150000D01*
X126875000Y-53450000D02*
X126875000Y-52700000D01*
X125375000Y-45150000D02*
X125375000Y-43350000D01*
X126875000Y-52700000D02*
X129825000Y-52700000D01*
X129825000Y-44100000D02*
X129825000Y-48400000D01*
X125375000Y-53450000D02*
X125375000Y-51650000D01*
X129825000Y-52700000D02*
X129825000Y-48400000D01*
X124615000Y-43340000D02*
X124615000Y-53460000D01*
X124615000Y-53460000D02*
X130585000Y-53460000D01*
%TO.C,C2*%
X102490000Y-28859420D02*
X102490000Y-29140580D01*
X103510000Y-28859420D02*
X103510000Y-29140580D01*
%TO.C,C6*%
X108534000Y-48404302D02*
X111160000Y-48404302D01*
X108120000Y-50125302D02*
X116280000Y-50125302D01*
X108224000Y-49284302D02*
X111160000Y-49284302D01*
X110971000Y-46284302D02*
X113429000Y-46284302D01*
X108163000Y-49605302D02*
X116237000Y-49605302D01*
X109913000Y-46804302D02*
X114487000Y-46804302D01*
X108139000Y-49805302D02*
X116261000Y-49805302D01*
X110310000Y-46564302D02*
X114090000Y-46564302D01*
X113240000Y-48964302D02*
X116089000Y-48964302D01*
X113240000Y-48204302D02*
X115762000Y-48204302D01*
X109855000Y-46844302D02*
X114545000Y-46844302D01*
X108215000Y-49324302D02*
X111160000Y-49324302D01*
X108426000Y-48644302D02*
X111160000Y-48644302D01*
X113240000Y-48324302D02*
X115827000Y-48324302D01*
X113240000Y-49324302D02*
X116185000Y-49324302D01*
X109333000Y-47284302D02*
X115067000Y-47284302D01*
X109549000Y-47084302D02*
X114851000Y-47084302D01*
X108891000Y-47804302D02*
X111160000Y-47804302D01*
X113240000Y-48764302D02*
X116021000Y-48764302D01*
X113240000Y-49404302D02*
X116202000Y-49404302D01*
X111102000Y-46244302D02*
X113298000Y-46244302D01*
X113240000Y-48724302D02*
X116005000Y-48724302D01*
X113240000Y-48644302D02*
X115974000Y-48644302D01*
X108311000Y-48964302D02*
X111160000Y-48964302D01*
X108514000Y-48444302D02*
X111160000Y-48444302D01*
X108808000Y-47924302D02*
X111160000Y-47924302D01*
X108198000Y-49404302D02*
X111160000Y-49404302D01*
X113240000Y-47524302D02*
X115290000Y-47524302D01*
X108183000Y-49484302D02*
X111160000Y-49484302D01*
X108298000Y-49004302D02*
X111160000Y-49004302D01*
X108233000Y-49244302D02*
X111160000Y-49244302D01*
X113240000Y-47644302D02*
X115389000Y-47644302D01*
X109746000Y-46924302D02*
X114654000Y-46924302D01*
X108683000Y-48124302D02*
X111160000Y-48124302D01*
X113240000Y-47924302D02*
X115592000Y-47924302D01*
X113240000Y-48284302D02*
X115806000Y-48284302D01*
X113240000Y-47564302D02*
X115324000Y-47564302D01*
X108129000Y-49925302D02*
X116271000Y-49925302D01*
X108206000Y-49364302D02*
X111160000Y-49364302D01*
X108126000Y-49965302D02*
X116274000Y-49965302D01*
X108121000Y-50085302D02*
X116279000Y-50085302D01*
X113240000Y-48404302D02*
X115866000Y-48404302D01*
X108176000Y-49525302D02*
X116224000Y-49525302D01*
X113240000Y-48884302D02*
X116063000Y-48884302D01*
X111432000Y-46164302D02*
X112968000Y-46164302D01*
X113240000Y-48564302D02*
X115940000Y-48564302D01*
X108594000Y-48284302D02*
X111160000Y-48284302D01*
X109885000Y-54615000D02*
X109885000Y-53815000D01*
X110166000Y-46644302D02*
X114234000Y-46644302D01*
X109695000Y-46964302D02*
X114705000Y-46964302D01*
X108124000Y-50005302D02*
X116276000Y-50005302D01*
X113240000Y-48684302D02*
X115990000Y-48684302D01*
X110747000Y-46364302D02*
X113653000Y-46364302D01*
X108286000Y-49044302D02*
X111160000Y-49044302D01*
X108135000Y-49845302D02*
X116265000Y-49845302D01*
X109800000Y-46884302D02*
X114600000Y-46884302D01*
X110098000Y-46684302D02*
X114302000Y-46684302D01*
X108337000Y-48884302D02*
X111160000Y-48884302D01*
X108190000Y-49444302D02*
X111160000Y-49444302D01*
X113240000Y-48164302D02*
X115740000Y-48164302D01*
X108323000Y-48924302D02*
X111160000Y-48924302D01*
X108443000Y-48604302D02*
X111160000Y-48604302D01*
X110555000Y-46444302D02*
X113845000Y-46444302D01*
X109011000Y-47644302D02*
X111160000Y-47644302D01*
X110648000Y-46404302D02*
X113752000Y-46404302D01*
X113240000Y-47764302D02*
X115480000Y-47764302D01*
X108158000Y-49645302D02*
X116242000Y-49645302D01*
X109644000Y-47004302D02*
X114756000Y-47004302D01*
X108660000Y-48164302D02*
X111160000Y-48164302D01*
X113240000Y-47484302D02*
X115255000Y-47484302D01*
X108152000Y-49685302D02*
X116248000Y-49685302D01*
X113240000Y-48484302D02*
X115904000Y-48484302D01*
X109044000Y-47604302D02*
X111160000Y-47604302D01*
X108920000Y-47764302D02*
X111160000Y-47764302D01*
X113240000Y-47804302D02*
X115509000Y-47804302D01*
X113240000Y-49004302D02*
X116102000Y-49004302D01*
X113240000Y-48124302D02*
X115717000Y-48124302D01*
X108379000Y-48764302D02*
X111160000Y-48764302D01*
X113240000Y-47884302D02*
X115565000Y-47884302D01*
X109459000Y-47164302D02*
X114941000Y-47164302D01*
X110854000Y-46324302D02*
X113546000Y-46324302D01*
X113240000Y-47684302D02*
X115420000Y-47684302D01*
X113240000Y-49164302D02*
X116147000Y-49164302D01*
X108707000Y-48084302D02*
X111160000Y-48084302D01*
X113240000Y-49284302D02*
X116176000Y-49284302D01*
X113240000Y-48004302D02*
X115644000Y-48004302D01*
X108148000Y-49725302D02*
X116252000Y-49725302D01*
X108264000Y-49124302D02*
X111160000Y-49124302D01*
X113240000Y-48044302D02*
X115669000Y-48044302D01*
X109076000Y-47564302D02*
X111160000Y-47564302D01*
X111252000Y-46204302D02*
X113148000Y-46204302D01*
X108980000Y-47684302D02*
X111160000Y-47684302D01*
X108478000Y-48524302D02*
X111160000Y-48524302D01*
X109485000Y-54215000D02*
X110285000Y-54215000D01*
X113240000Y-49444302D02*
X116210000Y-49444302D01*
X108553000Y-48364302D02*
X111160000Y-48364302D01*
X108460000Y-48564302D02*
X111160000Y-48564302D01*
X108132000Y-49885302D02*
X116268000Y-49885302D01*
X108143000Y-49765302D02*
X116257000Y-49765302D01*
X113240000Y-48244302D02*
X115784000Y-48244302D01*
X113240000Y-47604302D02*
X115356000Y-47604302D01*
X108170000Y-49565302D02*
X116230000Y-49565302D01*
X108253000Y-49164302D02*
X111160000Y-49164302D01*
X113240000Y-48444302D02*
X115886000Y-48444302D01*
X108573000Y-48324302D02*
X111160000Y-48324302D01*
X108950000Y-47724302D02*
X111160000Y-47724302D01*
X113240000Y-49204302D02*
X116157000Y-49204302D01*
X108782000Y-47964302D02*
X111160000Y-47964302D01*
X113240000Y-47724302D02*
X115450000Y-47724302D01*
X113240000Y-47444302D02*
X115219000Y-47444302D01*
X108496000Y-48484302D02*
X111160000Y-48484302D01*
X108395000Y-48724302D02*
X111160000Y-48724302D01*
X110387000Y-46524302D02*
X114013000Y-46524302D01*
X108120000Y-50205302D02*
X116280000Y-50205302D01*
X109972000Y-46764302D02*
X114428000Y-46764302D01*
X113240000Y-48604302D02*
X115957000Y-48604302D01*
X113240000Y-48524302D02*
X115922000Y-48524302D01*
X113240000Y-49364302D02*
X116194000Y-49364302D01*
X113240000Y-47844302D02*
X115538000Y-47844302D01*
X113240000Y-49244302D02*
X116167000Y-49244302D01*
X108123000Y-50045302D02*
X116277000Y-50045302D01*
X108835000Y-47884302D02*
X111160000Y-47884302D01*
X113240000Y-49044302D02*
X116114000Y-49044302D01*
X108120000Y-50165302D02*
X116280000Y-50165302D01*
X110034000Y-46724302D02*
X114366000Y-46724302D01*
X111667000Y-46124302D02*
X112733000Y-46124302D01*
X109293000Y-47324302D02*
X115107000Y-47324302D01*
X110236000Y-46604302D02*
X114164000Y-46604302D01*
X108243000Y-49204302D02*
X111160000Y-49204302D01*
X108862000Y-47844302D02*
X111160000Y-47844302D01*
X113240000Y-49124302D02*
X116136000Y-49124302D01*
X108365000Y-48804302D02*
X111160000Y-48804302D01*
X108638000Y-48204302D02*
X111160000Y-48204302D01*
X113240000Y-48844302D02*
X116050000Y-48844302D01*
X113240000Y-48084302D02*
X115693000Y-48084302D01*
X108410000Y-48684302D02*
X111160000Y-48684302D01*
X113240000Y-49084302D02*
X116125000Y-49084302D01*
X108756000Y-48004302D02*
X111160000Y-48004302D01*
X108275000Y-49084302D02*
X111160000Y-49084302D01*
X113240000Y-49484302D02*
X116217000Y-49484302D01*
X113240000Y-48804302D02*
X116035000Y-48804302D01*
X109255000Y-47364302D02*
X115145000Y-47364302D01*
X113240000Y-47964302D02*
X115618000Y-47964302D01*
X110469000Y-46484302D02*
X113931000Y-46484302D01*
X109145000Y-47484302D02*
X111160000Y-47484302D01*
X109110000Y-47524302D02*
X111160000Y-47524302D01*
X109181000Y-47444302D02*
X111160000Y-47444302D01*
X109374000Y-47244302D02*
X115026000Y-47244302D01*
X113240000Y-48364302D02*
X115847000Y-48364302D01*
X109596000Y-47044302D02*
X114804000Y-47044302D01*
X113240000Y-48924302D02*
X116077000Y-48924302D01*
X108350000Y-48844302D02*
X111160000Y-48844302D01*
X109503000Y-47124302D02*
X114897000Y-47124302D01*
X109217000Y-47404302D02*
X115183000Y-47404302D01*
X108731000Y-48044302D02*
X111160000Y-48044302D01*
X108616000Y-48244302D02*
X111160000Y-48244302D01*
X109416000Y-47204302D02*
X114984000Y-47204302D01*
X116320000Y-50205302D02*
G75*
G03*
X116320000Y-50205302I-4120000J0D01*
G01*
%TO.C,R10*%
X113522936Y-41485000D02*
X113977064Y-41485000D01*
X113522936Y-40015000D02*
X113977064Y-40015000D01*
%TO.C,U1*%
X64100000Y-26200000D02*
X107100000Y-26200000D01*
X107100000Y-26200000D02*
X107100000Y-47200000D01*
X107100000Y-47200000D02*
X64100000Y-47200000D01*
X64100000Y-47200000D02*
X64100000Y-26200000D01*
%TO.C,D3*%
X129050000Y-35800000D02*
X125750000Y-35800000D01*
X125750000Y-35800000D02*
X125750000Y-41200000D01*
X129050000Y-35800000D02*
X129050000Y-41200000D01*
%TO.C,Q5*%
X110400000Y-31240000D02*
X108725000Y-31240000D01*
X110400000Y-31240000D02*
X111050000Y-31240000D01*
X110400000Y-34360000D02*
X109750000Y-34360000D01*
X110400000Y-34360000D02*
X111050000Y-34360000D01*
%TO.C,J1*%
X103655000Y-51070000D02*
X103655000Y-53670000D01*
X103655000Y-53670000D02*
X90835000Y-53670000D01*
X102325000Y-48470000D02*
X103655000Y-48470000D01*
X103655000Y-48470000D02*
X103655000Y-49800000D01*
X101055000Y-51070000D02*
X103655000Y-51070000D01*
X90835000Y-48470000D02*
X90835000Y-53670000D01*
X101055000Y-48470000D02*
X90835000Y-48470000D01*
X101055000Y-48470000D02*
X101055000Y-51070000D01*
%TO.C,D2*%
X117300000Y-26200000D02*
X117300000Y-28000000D01*
X117300000Y-29500000D02*
X117300000Y-35500000D01*
X117000000Y-37850000D02*
X117000000Y-39100000D01*
X119550000Y-26200000D02*
X119550000Y-26950000D01*
X118050000Y-35500000D02*
X118050000Y-29500000D01*
X117300000Y-35500000D02*
X118050000Y-35500000D01*
X117000000Y-39100000D02*
X118250000Y-39100000D01*
X117290000Y-26190000D02*
X117290000Y-38810000D01*
X118050000Y-29500000D02*
X117300000Y-29500000D01*
X123260000Y-38810000D02*
X123260000Y-26190000D01*
X119550000Y-38800000D02*
X119550000Y-38050000D01*
X117290000Y-38810000D02*
X123260000Y-38810000D01*
X118050000Y-28000000D02*
X118050000Y-26200000D01*
X118050000Y-26200000D02*
X117300000Y-26200000D01*
X117300000Y-37000000D02*
X117300000Y-38800000D01*
X123260000Y-26190000D02*
X117290000Y-26190000D01*
X117300000Y-28000000D02*
X118050000Y-28000000D01*
X118050000Y-37000000D02*
X117300000Y-37000000D01*
X122500000Y-26950000D02*
X122500000Y-32500000D01*
X119550000Y-38050000D02*
X122500000Y-38050000D01*
X117300000Y-38800000D02*
X118050000Y-38800000D01*
X119550000Y-26950000D02*
X122500000Y-26950000D01*
X122500000Y-38050000D02*
X122500000Y-32500000D01*
X118050000Y-38800000D02*
X118050000Y-37000000D01*
%TO.C,D1*%
X120600000Y-47678611D02*
X120600000Y-48883712D01*
X122774899Y-45503712D02*
G75*
G03*
X122774899Y-45503712I-2174899J0D01*
G01*
%TO.C,Q3*%
X110400000Y-29760000D02*
X109750000Y-29760000D01*
X110400000Y-26640000D02*
X111050000Y-26640000D01*
X110400000Y-29760000D02*
X111050000Y-29760000D01*
X110400000Y-26640000D02*
X108725000Y-26640000D01*
%TD*%
M02*
