%TF.GenerationSoftware,KiCad,Pcbnew,6.0.11-2627ca5db0~126~ubuntu22.04.1*%
%TF.CreationDate,2023-02-15T16:19:57+03:00*%
%TF.ProjectId,train_barrier,74726169-6e5f-4626-9172-726965722e6b,rev?*%
%TF.SameCoordinates,Original*%
%TF.FileFunction,Drillmap*%
%TF.FilePolarity,Positive*%
%FSLAX45Y45*%
G04 Gerber Fmt 4.5, Leading zero omitted, Abs format (unit mm)*
G04 Created by KiCad (PCBNEW 6.0.11-2627ca5db0~126~ubuntu22.04.1) date 2023-02-15 16:19:57*
%MOMM*%
%LPD*%
G01*
G04 APERTURE LIST*
%ADD10C,0.100000*%
%ADD11C,0.200000*%
%ADD12C,0.040000*%
%ADD13C,0.080000*%
%ADD14C,0.095000*%
%ADD15C,0.110000*%
%ADD16C,0.140000*%
G04 APERTURE END LIST*
D10*
X6300000Y-2520000D02*
X13220000Y-2520000D01*
X13220000Y-2520000D02*
X13220000Y-5540000D01*
X13220000Y-5540000D02*
X6300000Y-5540000D01*
X6300000Y-5540000D02*
X6300000Y-2520000D01*
D11*
D12*
X7090050Y-3520000D02*
X7130050Y-3560000D01*
X7130050Y-3520000D02*
X7090050Y-3560000D01*
X7696266Y-3440000D02*
X7736266Y-3480000D01*
X7736266Y-3440000D02*
X7696266Y-3480000D01*
X7820000Y-3600000D02*
X7860000Y-3640000D01*
X7860000Y-3600000D02*
X7820000Y-3640000D01*
X8100000Y-3180000D02*
X8140000Y-3220000D01*
X8140000Y-3180000D02*
X8100000Y-3220000D01*
X8500000Y-4080000D02*
X8540000Y-4120000D01*
X8540000Y-4080000D02*
X8500000Y-4120000D01*
X8851250Y-2991250D02*
X8891250Y-3031250D01*
X8891250Y-2991250D02*
X8851250Y-3031250D01*
X9500000Y-3440000D02*
X9540000Y-3480000D01*
X9540000Y-3440000D02*
X9500000Y-3480000D01*
X9500000Y-3840000D02*
X9540000Y-3880000D01*
X9540000Y-3840000D02*
X9500000Y-3880000D01*
X10002500Y-2957500D02*
X10042500Y-2997500D01*
X10042500Y-2957500D02*
X10002500Y-2997500D01*
X10755000Y-2895000D02*
X10795000Y-2935000D01*
X10795000Y-2895000D02*
X10755000Y-2935000D01*
D13*
X10080000Y-2819205D02*
G75*
G03*
X10080000Y-2819205I-40000J0D01*
G01*
X10080000Y-3319205D02*
G75*
G03*
X10080000Y-3319205I-40000J0D01*
G01*
X11260000Y-4845530D02*
G75*
G03*
X11260000Y-4845530I-40000J0D01*
G01*
X11260000Y-5195530D02*
G75*
G03*
X11260000Y-5195530I-40000J0D01*
G01*
D14*
X7740000Y-5052500D02*
X7740000Y-5147500D01*
X7692500Y-5100000D02*
X7787500Y-5100000D01*
X7990000Y-5052500D02*
X7990000Y-5147500D01*
X7942500Y-5100000D02*
X8037500Y-5100000D01*
X8240000Y-5052500D02*
X8240000Y-5147500D01*
X8192500Y-5100000D02*
X8287500Y-5100000D01*
X8490000Y-5052500D02*
X8490000Y-5147500D01*
X8442500Y-5100000D02*
X8537500Y-5100000D01*
X11975000Y-2827500D02*
X11975000Y-2922500D01*
X11927500Y-2875000D02*
X12022500Y-2875000D01*
X11975000Y-3077500D02*
X11975000Y-3172500D01*
X11927500Y-3125000D02*
X12022500Y-3125000D01*
X11975000Y-3327500D02*
X11975000Y-3422500D01*
X11927500Y-3375000D02*
X12022500Y-3375000D01*
X11975000Y-3577500D02*
X11975000Y-3672500D01*
X11927500Y-3625000D02*
X12022500Y-3625000D01*
X12707500Y-4542500D02*
X12707500Y-4637500D01*
X12660000Y-4590000D02*
X12755000Y-4590000D01*
X12707500Y-4792500D02*
X12707500Y-4887500D01*
X12660000Y-4840000D02*
X12755000Y-4840000D01*
X12707500Y-5042500D02*
X12707500Y-5137500D01*
X12660000Y-5090000D02*
X12755000Y-5090000D01*
D10*
X6620356Y-2855356D02*
X6620356Y-2784644D01*
X6549644Y-2784644D01*
X6549644Y-2855356D01*
X6620356Y-2855356D01*
X6620356Y-4555356D02*
X6620356Y-4484644D01*
X6549644Y-4484644D01*
X6549644Y-4555356D01*
X6620356Y-4555356D01*
X9251856Y-5015356D02*
X9251856Y-4944644D01*
X9181144Y-4944644D01*
X9181144Y-5015356D01*
X9251856Y-5015356D01*
X9251856Y-5269356D02*
X9251856Y-5198644D01*
X9181144Y-5198644D01*
X9181144Y-5269356D01*
X9251856Y-5269356D01*
X9505856Y-5015356D02*
X9505856Y-4944644D01*
X9435144Y-4944644D01*
X9435144Y-5015356D01*
X9505856Y-5015356D01*
X9505856Y-5269356D02*
X9505856Y-5198644D01*
X9435144Y-5198644D01*
X9435144Y-5269356D01*
X9505856Y-5269356D01*
X9759856Y-5015356D02*
X9759856Y-4944644D01*
X9689144Y-4944644D01*
X9689144Y-5015356D01*
X9759856Y-5015356D01*
X9759856Y-5269356D02*
X9759856Y-5198644D01*
X9689144Y-5198644D01*
X9689144Y-5269356D01*
X9759856Y-5269356D01*
X10013856Y-5015356D02*
X10013856Y-4944644D01*
X9943144Y-4944644D01*
X9943144Y-5015356D01*
X10013856Y-5015356D01*
X10013856Y-5269356D02*
X10013856Y-5198644D01*
X9943144Y-5198644D01*
X9943144Y-5269356D01*
X10013856Y-5269356D01*
X10267856Y-5015356D02*
X10267856Y-4944644D01*
X10197144Y-4944644D01*
X10197144Y-5015356D01*
X10267856Y-5015356D01*
X10267856Y-5269356D02*
X10267856Y-5198644D01*
X10197144Y-5198644D01*
X10197144Y-5269356D01*
X10267856Y-5269356D01*
X10570356Y-2855356D02*
X10570356Y-2784644D01*
X10499644Y-2784644D01*
X10499644Y-2855356D01*
X10570356Y-2855356D01*
X10570356Y-4555356D02*
X10570356Y-4484644D01*
X10499644Y-4484644D01*
X10499644Y-4555356D01*
X10570356Y-4555356D01*
D15*
X6620000Y-5315000D02*
X6675000Y-5260000D01*
X6620000Y-5205000D01*
X6565000Y-5260000D01*
X6620000Y-5315000D01*
X7100000Y-5315000D02*
X7155000Y-5260000D01*
X7100000Y-5205000D01*
X7045000Y-5260000D01*
X7100000Y-5315000D01*
X11000000Y-4395000D02*
X11055000Y-4340000D01*
X11000000Y-4285000D01*
X10945000Y-4340000D01*
X11000000Y-4395000D01*
X11460000Y-4395000D02*
X11515000Y-4340000D01*
X11460000Y-4285000D01*
X11405000Y-4340000D01*
X11460000Y-4395000D01*
D16*
X11990000Y-4480371D02*
X12130000Y-4620371D01*
X12130000Y-4480371D02*
X11990000Y-4620371D01*
X12130000Y-4550371D02*
G75*
G03*
X12130000Y-4550371I-70000J0D01*
G01*
X11990000Y-4988371D02*
X12130000Y-5128371D01*
X12130000Y-4988371D02*
X11990000Y-5128371D01*
X12130000Y-5058371D02*
G75*
G03*
X12130000Y-5058371I-70000J0D01*
G01*
D11*
X6552619Y-5855476D02*
X6552619Y-5655476D01*
X6600238Y-5655476D01*
X6628809Y-5665000D01*
X6647857Y-5684048D01*
X6657381Y-5703095D01*
X6666905Y-5741190D01*
X6666905Y-5769762D01*
X6657381Y-5807857D01*
X6647857Y-5826905D01*
X6628809Y-5845952D01*
X6600238Y-5855476D01*
X6552619Y-5855476D01*
X6752619Y-5855476D02*
X6752619Y-5722143D01*
X6752619Y-5760238D02*
X6762143Y-5741190D01*
X6771667Y-5731667D01*
X6790714Y-5722143D01*
X6809762Y-5722143D01*
X6876428Y-5855476D02*
X6876428Y-5722143D01*
X6876428Y-5655476D02*
X6866905Y-5665000D01*
X6876428Y-5674524D01*
X6885952Y-5665000D01*
X6876428Y-5655476D01*
X6876428Y-5674524D01*
X7000238Y-5855476D02*
X6981190Y-5845952D01*
X6971667Y-5826905D01*
X6971667Y-5655476D01*
X7105000Y-5855476D02*
X7085952Y-5845952D01*
X7076428Y-5826905D01*
X7076428Y-5655476D01*
X7333571Y-5855476D02*
X7333571Y-5655476D01*
X7400238Y-5798333D01*
X7466905Y-5655476D01*
X7466905Y-5855476D01*
X7647857Y-5855476D02*
X7647857Y-5750714D01*
X7638333Y-5731667D01*
X7619286Y-5722143D01*
X7581190Y-5722143D01*
X7562143Y-5731667D01*
X7647857Y-5845952D02*
X7628809Y-5855476D01*
X7581190Y-5855476D01*
X7562143Y-5845952D01*
X7552619Y-5826905D01*
X7552619Y-5807857D01*
X7562143Y-5788809D01*
X7581190Y-5779286D01*
X7628809Y-5779286D01*
X7647857Y-5769762D01*
X7743095Y-5722143D02*
X7743095Y-5922143D01*
X7743095Y-5731667D02*
X7762143Y-5722143D01*
X7800238Y-5722143D01*
X7819286Y-5731667D01*
X7828809Y-5741190D01*
X7838333Y-5760238D01*
X7838333Y-5817381D01*
X7828809Y-5836428D01*
X7819286Y-5845952D01*
X7800238Y-5855476D01*
X7762143Y-5855476D01*
X7743095Y-5845952D01*
X7924048Y-5836428D02*
X7933571Y-5845952D01*
X7924048Y-5855476D01*
X7914524Y-5845952D01*
X7924048Y-5836428D01*
X7924048Y-5855476D01*
X7924048Y-5731667D02*
X7933571Y-5741190D01*
X7924048Y-5750714D01*
X7914524Y-5741190D01*
X7924048Y-5731667D01*
X7924048Y-5750714D01*
D12*
X6255000Y-6165000D02*
X6295000Y-6205000D01*
X6295000Y-6165000D02*
X6255000Y-6205000D01*
D11*
X6590714Y-6075476D02*
X6609762Y-6075476D01*
X6628809Y-6085000D01*
X6638333Y-6094524D01*
X6647857Y-6113571D01*
X6657381Y-6151667D01*
X6657381Y-6199286D01*
X6647857Y-6237381D01*
X6638333Y-6256428D01*
X6628809Y-6265952D01*
X6609762Y-6275476D01*
X6590714Y-6275476D01*
X6571667Y-6265952D01*
X6562143Y-6256428D01*
X6552619Y-6237381D01*
X6543095Y-6199286D01*
X6543095Y-6151667D01*
X6552619Y-6113571D01*
X6562143Y-6094524D01*
X6571667Y-6085000D01*
X6590714Y-6075476D01*
X6743095Y-6256428D02*
X6752619Y-6265952D01*
X6743095Y-6275476D01*
X6733571Y-6265952D01*
X6743095Y-6256428D01*
X6743095Y-6275476D01*
X6924048Y-6142143D02*
X6924048Y-6275476D01*
X6876428Y-6065952D02*
X6828809Y-6208809D01*
X6952619Y-6208809D01*
X7066905Y-6075476D02*
X7085952Y-6075476D01*
X7105000Y-6085000D01*
X7114524Y-6094524D01*
X7124048Y-6113571D01*
X7133571Y-6151667D01*
X7133571Y-6199286D01*
X7124048Y-6237381D01*
X7114524Y-6256428D01*
X7105000Y-6265952D01*
X7085952Y-6275476D01*
X7066905Y-6275476D01*
X7047857Y-6265952D01*
X7038333Y-6256428D01*
X7028809Y-6237381D01*
X7019286Y-6199286D01*
X7019286Y-6151667D01*
X7028809Y-6113571D01*
X7038333Y-6094524D01*
X7047857Y-6085000D01*
X7066905Y-6075476D01*
X7257381Y-6075476D02*
X7276428Y-6075476D01*
X7295476Y-6085000D01*
X7305000Y-6094524D01*
X7314524Y-6113571D01*
X7324048Y-6151667D01*
X7324048Y-6199286D01*
X7314524Y-6237381D01*
X7305000Y-6256428D01*
X7295476Y-6265952D01*
X7276428Y-6275476D01*
X7257381Y-6275476D01*
X7238333Y-6265952D01*
X7228809Y-6256428D01*
X7219286Y-6237381D01*
X7209762Y-6199286D01*
X7209762Y-6151667D01*
X7219286Y-6113571D01*
X7228809Y-6094524D01*
X7238333Y-6085000D01*
X7257381Y-6075476D01*
X7409762Y-6275476D02*
X7409762Y-6142143D01*
X7409762Y-6161190D02*
X7419286Y-6151667D01*
X7438333Y-6142143D01*
X7466905Y-6142143D01*
X7485952Y-6151667D01*
X7495476Y-6170714D01*
X7495476Y-6275476D01*
X7495476Y-6170714D02*
X7505000Y-6151667D01*
X7524048Y-6142143D01*
X7552619Y-6142143D01*
X7571667Y-6151667D01*
X7581190Y-6170714D01*
X7581190Y-6275476D01*
X7676428Y-6275476D02*
X7676428Y-6142143D01*
X7676428Y-6161190D02*
X7685952Y-6151667D01*
X7705000Y-6142143D01*
X7733571Y-6142143D01*
X7752619Y-6151667D01*
X7762143Y-6170714D01*
X7762143Y-6275476D01*
X7762143Y-6170714D02*
X7771667Y-6151667D01*
X7790714Y-6142143D01*
X7819286Y-6142143D01*
X7838333Y-6151667D01*
X7847857Y-6170714D01*
X7847857Y-6275476D01*
X8238333Y-6065952D02*
X8066905Y-6323095D01*
X8495476Y-6075476D02*
X8514524Y-6075476D01*
X8533571Y-6085000D01*
X8543095Y-6094524D01*
X8552619Y-6113571D01*
X8562143Y-6151667D01*
X8562143Y-6199286D01*
X8552619Y-6237381D01*
X8543095Y-6256428D01*
X8533571Y-6265952D01*
X8514524Y-6275476D01*
X8495476Y-6275476D01*
X8476429Y-6265952D01*
X8466905Y-6256428D01*
X8457381Y-6237381D01*
X8447857Y-6199286D01*
X8447857Y-6151667D01*
X8457381Y-6113571D01*
X8466905Y-6094524D01*
X8476429Y-6085000D01*
X8495476Y-6075476D01*
X8647857Y-6256428D02*
X8657381Y-6265952D01*
X8647857Y-6275476D01*
X8638333Y-6265952D01*
X8647857Y-6256428D01*
X8647857Y-6275476D01*
X8781190Y-6075476D02*
X8800238Y-6075476D01*
X8819286Y-6085000D01*
X8828810Y-6094524D01*
X8838333Y-6113571D01*
X8847857Y-6151667D01*
X8847857Y-6199286D01*
X8838333Y-6237381D01*
X8828810Y-6256428D01*
X8819286Y-6265952D01*
X8800238Y-6275476D01*
X8781190Y-6275476D01*
X8762143Y-6265952D01*
X8752619Y-6256428D01*
X8743095Y-6237381D01*
X8733571Y-6199286D01*
X8733571Y-6151667D01*
X8743095Y-6113571D01*
X8752619Y-6094524D01*
X8762143Y-6085000D01*
X8781190Y-6075476D01*
X9038333Y-6275476D02*
X8924048Y-6275476D01*
X8981190Y-6275476D02*
X8981190Y-6075476D01*
X8962143Y-6104048D01*
X8943095Y-6123095D01*
X8924048Y-6132619D01*
X9219286Y-6075476D02*
X9124048Y-6075476D01*
X9114524Y-6170714D01*
X9124048Y-6161190D01*
X9143095Y-6151667D01*
X9190714Y-6151667D01*
X9209762Y-6161190D01*
X9219286Y-6170714D01*
X9228810Y-6189762D01*
X9228810Y-6237381D01*
X9219286Y-6256428D01*
X9209762Y-6265952D01*
X9190714Y-6275476D01*
X9143095Y-6275476D01*
X9124048Y-6265952D01*
X9114524Y-6256428D01*
X9295476Y-6075476D02*
X9428810Y-6075476D01*
X9343095Y-6275476D01*
X9495476Y-6075476D02*
X9495476Y-6113571D01*
X9571667Y-6075476D02*
X9571667Y-6113571D01*
X9866905Y-6351667D02*
X9857381Y-6342143D01*
X9838333Y-6313571D01*
X9828810Y-6294524D01*
X9819286Y-6265952D01*
X9809762Y-6218333D01*
X9809762Y-6180238D01*
X9819286Y-6132619D01*
X9828810Y-6104048D01*
X9838333Y-6085000D01*
X9857381Y-6056428D01*
X9866905Y-6046905D01*
X10047857Y-6275476D02*
X9933571Y-6275476D01*
X9990714Y-6275476D02*
X9990714Y-6075476D01*
X9971667Y-6104048D01*
X9952619Y-6123095D01*
X9933571Y-6132619D01*
X10171667Y-6075476D02*
X10190714Y-6075476D01*
X10209762Y-6085000D01*
X10219286Y-6094524D01*
X10228810Y-6113571D01*
X10238333Y-6151667D01*
X10238333Y-6199286D01*
X10228810Y-6237381D01*
X10219286Y-6256428D01*
X10209762Y-6265952D01*
X10190714Y-6275476D01*
X10171667Y-6275476D01*
X10152619Y-6265952D01*
X10143095Y-6256428D01*
X10133571Y-6237381D01*
X10124048Y-6199286D01*
X10124048Y-6151667D01*
X10133571Y-6113571D01*
X10143095Y-6094524D01*
X10152619Y-6085000D01*
X10171667Y-6075476D01*
X10476429Y-6275476D02*
X10476429Y-6075476D01*
X10562143Y-6275476D02*
X10562143Y-6170714D01*
X10552619Y-6151667D01*
X10533571Y-6142143D01*
X10505000Y-6142143D01*
X10485952Y-6151667D01*
X10476429Y-6161190D01*
X10685952Y-6275476D02*
X10666905Y-6265952D01*
X10657381Y-6256428D01*
X10647857Y-6237381D01*
X10647857Y-6180238D01*
X10657381Y-6161190D01*
X10666905Y-6151667D01*
X10685952Y-6142143D01*
X10714524Y-6142143D01*
X10733571Y-6151667D01*
X10743095Y-6161190D01*
X10752619Y-6180238D01*
X10752619Y-6237381D01*
X10743095Y-6256428D01*
X10733571Y-6265952D01*
X10714524Y-6275476D01*
X10685952Y-6275476D01*
X10866905Y-6275476D02*
X10847857Y-6265952D01*
X10838333Y-6246905D01*
X10838333Y-6075476D01*
X11019286Y-6265952D02*
X11000238Y-6275476D01*
X10962143Y-6275476D01*
X10943095Y-6265952D01*
X10933571Y-6246905D01*
X10933571Y-6170714D01*
X10943095Y-6151667D01*
X10962143Y-6142143D01*
X11000238Y-6142143D01*
X11019286Y-6151667D01*
X11028810Y-6170714D01*
X11028810Y-6189762D01*
X10933571Y-6208809D01*
X11105000Y-6265952D02*
X11124048Y-6275476D01*
X11162143Y-6275476D01*
X11181190Y-6265952D01*
X11190714Y-6246905D01*
X11190714Y-6237381D01*
X11181190Y-6218333D01*
X11162143Y-6208809D01*
X11133571Y-6208809D01*
X11114524Y-6199286D01*
X11105000Y-6180238D01*
X11105000Y-6170714D01*
X11114524Y-6151667D01*
X11133571Y-6142143D01*
X11162143Y-6142143D01*
X11181190Y-6151667D01*
X11257381Y-6351667D02*
X11266905Y-6342143D01*
X11285952Y-6313571D01*
X11295476Y-6294524D01*
X11305000Y-6265952D01*
X11314524Y-6218333D01*
X11314524Y-6180238D01*
X11305000Y-6132619D01*
X11295476Y-6104048D01*
X11285952Y-6085000D01*
X11266905Y-6056428D01*
X11257381Y-6046905D01*
D13*
X6295000Y-6449000D02*
G75*
G03*
X6295000Y-6449000I-40000J0D01*
G01*
D11*
X6590714Y-6339476D02*
X6609762Y-6339476D01*
X6628809Y-6349000D01*
X6638333Y-6358524D01*
X6647857Y-6377571D01*
X6657381Y-6415667D01*
X6657381Y-6463286D01*
X6647857Y-6501381D01*
X6638333Y-6520428D01*
X6628809Y-6529952D01*
X6609762Y-6539476D01*
X6590714Y-6539476D01*
X6571667Y-6529952D01*
X6562143Y-6520428D01*
X6552619Y-6501381D01*
X6543095Y-6463286D01*
X6543095Y-6415667D01*
X6552619Y-6377571D01*
X6562143Y-6358524D01*
X6571667Y-6349000D01*
X6590714Y-6339476D01*
X6743095Y-6520428D02*
X6752619Y-6529952D01*
X6743095Y-6539476D01*
X6733571Y-6529952D01*
X6743095Y-6520428D01*
X6743095Y-6539476D01*
X6866905Y-6425190D02*
X6847857Y-6415667D01*
X6838333Y-6406143D01*
X6828809Y-6387095D01*
X6828809Y-6377571D01*
X6838333Y-6358524D01*
X6847857Y-6349000D01*
X6866905Y-6339476D01*
X6905000Y-6339476D01*
X6924048Y-6349000D01*
X6933571Y-6358524D01*
X6943095Y-6377571D01*
X6943095Y-6387095D01*
X6933571Y-6406143D01*
X6924048Y-6415667D01*
X6905000Y-6425190D01*
X6866905Y-6425190D01*
X6847857Y-6434714D01*
X6838333Y-6444238D01*
X6828809Y-6463286D01*
X6828809Y-6501381D01*
X6838333Y-6520428D01*
X6847857Y-6529952D01*
X6866905Y-6539476D01*
X6905000Y-6539476D01*
X6924048Y-6529952D01*
X6933571Y-6520428D01*
X6943095Y-6501381D01*
X6943095Y-6463286D01*
X6933571Y-6444238D01*
X6924048Y-6434714D01*
X6905000Y-6425190D01*
X7066905Y-6339476D02*
X7085952Y-6339476D01*
X7105000Y-6349000D01*
X7114524Y-6358524D01*
X7124048Y-6377571D01*
X7133571Y-6415667D01*
X7133571Y-6463286D01*
X7124048Y-6501381D01*
X7114524Y-6520428D01*
X7105000Y-6529952D01*
X7085952Y-6539476D01*
X7066905Y-6539476D01*
X7047857Y-6529952D01*
X7038333Y-6520428D01*
X7028809Y-6501381D01*
X7019286Y-6463286D01*
X7019286Y-6415667D01*
X7028809Y-6377571D01*
X7038333Y-6358524D01*
X7047857Y-6349000D01*
X7066905Y-6339476D01*
X7257381Y-6339476D02*
X7276428Y-6339476D01*
X7295476Y-6349000D01*
X7305000Y-6358524D01*
X7314524Y-6377571D01*
X7324048Y-6415667D01*
X7324048Y-6463286D01*
X7314524Y-6501381D01*
X7305000Y-6520428D01*
X7295476Y-6529952D01*
X7276428Y-6539476D01*
X7257381Y-6539476D01*
X7238333Y-6529952D01*
X7228809Y-6520428D01*
X7219286Y-6501381D01*
X7209762Y-6463286D01*
X7209762Y-6415667D01*
X7219286Y-6377571D01*
X7228809Y-6358524D01*
X7238333Y-6349000D01*
X7257381Y-6339476D01*
X7409762Y-6539476D02*
X7409762Y-6406143D01*
X7409762Y-6425190D02*
X7419286Y-6415667D01*
X7438333Y-6406143D01*
X7466905Y-6406143D01*
X7485952Y-6415667D01*
X7495476Y-6434714D01*
X7495476Y-6539476D01*
X7495476Y-6434714D02*
X7505000Y-6415667D01*
X7524048Y-6406143D01*
X7552619Y-6406143D01*
X7571667Y-6415667D01*
X7581190Y-6434714D01*
X7581190Y-6539476D01*
X7676428Y-6539476D02*
X7676428Y-6406143D01*
X7676428Y-6425190D02*
X7685952Y-6415667D01*
X7705000Y-6406143D01*
X7733571Y-6406143D01*
X7752619Y-6415667D01*
X7762143Y-6434714D01*
X7762143Y-6539476D01*
X7762143Y-6434714D02*
X7771667Y-6415667D01*
X7790714Y-6406143D01*
X7819286Y-6406143D01*
X7838333Y-6415667D01*
X7847857Y-6434714D01*
X7847857Y-6539476D01*
X8238333Y-6329952D02*
X8066905Y-6587095D01*
X8495476Y-6339476D02*
X8514524Y-6339476D01*
X8533571Y-6349000D01*
X8543095Y-6358524D01*
X8552619Y-6377571D01*
X8562143Y-6415667D01*
X8562143Y-6463286D01*
X8552619Y-6501381D01*
X8543095Y-6520428D01*
X8533571Y-6529952D01*
X8514524Y-6539476D01*
X8495476Y-6539476D01*
X8476429Y-6529952D01*
X8466905Y-6520428D01*
X8457381Y-6501381D01*
X8447857Y-6463286D01*
X8447857Y-6415667D01*
X8457381Y-6377571D01*
X8466905Y-6358524D01*
X8476429Y-6349000D01*
X8495476Y-6339476D01*
X8647857Y-6520428D02*
X8657381Y-6529952D01*
X8647857Y-6539476D01*
X8638333Y-6529952D01*
X8647857Y-6520428D01*
X8647857Y-6539476D01*
X8781190Y-6339476D02*
X8800238Y-6339476D01*
X8819286Y-6349000D01*
X8828810Y-6358524D01*
X8838333Y-6377571D01*
X8847857Y-6415667D01*
X8847857Y-6463286D01*
X8838333Y-6501381D01*
X8828810Y-6520428D01*
X8819286Y-6529952D01*
X8800238Y-6539476D01*
X8781190Y-6539476D01*
X8762143Y-6529952D01*
X8752619Y-6520428D01*
X8743095Y-6501381D01*
X8733571Y-6463286D01*
X8733571Y-6415667D01*
X8743095Y-6377571D01*
X8752619Y-6358524D01*
X8762143Y-6349000D01*
X8781190Y-6339476D01*
X8914524Y-6339476D02*
X9038333Y-6339476D01*
X8971667Y-6415667D01*
X9000238Y-6415667D01*
X9019286Y-6425190D01*
X9028810Y-6434714D01*
X9038333Y-6453762D01*
X9038333Y-6501381D01*
X9028810Y-6520428D01*
X9019286Y-6529952D01*
X9000238Y-6539476D01*
X8943095Y-6539476D01*
X8924048Y-6529952D01*
X8914524Y-6520428D01*
X9228810Y-6539476D02*
X9114524Y-6539476D01*
X9171667Y-6539476D02*
X9171667Y-6339476D01*
X9152619Y-6368048D01*
X9133571Y-6387095D01*
X9114524Y-6396619D01*
X9409762Y-6339476D02*
X9314524Y-6339476D01*
X9305000Y-6434714D01*
X9314524Y-6425190D01*
X9333571Y-6415667D01*
X9381190Y-6415667D01*
X9400238Y-6425190D01*
X9409762Y-6434714D01*
X9419286Y-6453762D01*
X9419286Y-6501381D01*
X9409762Y-6520428D01*
X9400238Y-6529952D01*
X9381190Y-6539476D01*
X9333571Y-6539476D01*
X9314524Y-6529952D01*
X9305000Y-6520428D01*
X9495476Y-6339476D02*
X9495476Y-6377571D01*
X9571667Y-6339476D02*
X9571667Y-6377571D01*
X9866905Y-6615667D02*
X9857381Y-6606143D01*
X9838333Y-6577571D01*
X9828810Y-6558524D01*
X9819286Y-6529952D01*
X9809762Y-6482333D01*
X9809762Y-6444238D01*
X9819286Y-6396619D01*
X9828810Y-6368048D01*
X9838333Y-6349000D01*
X9857381Y-6320428D01*
X9866905Y-6310905D01*
X10028810Y-6406143D02*
X10028810Y-6539476D01*
X9981190Y-6329952D02*
X9933571Y-6472809D01*
X10057381Y-6472809D01*
X10285952Y-6539476D02*
X10285952Y-6339476D01*
X10371667Y-6539476D02*
X10371667Y-6434714D01*
X10362143Y-6415667D01*
X10343095Y-6406143D01*
X10314524Y-6406143D01*
X10295476Y-6415667D01*
X10285952Y-6425190D01*
X10495476Y-6539476D02*
X10476429Y-6529952D01*
X10466905Y-6520428D01*
X10457381Y-6501381D01*
X10457381Y-6444238D01*
X10466905Y-6425190D01*
X10476429Y-6415667D01*
X10495476Y-6406143D01*
X10524048Y-6406143D01*
X10543095Y-6415667D01*
X10552619Y-6425190D01*
X10562143Y-6444238D01*
X10562143Y-6501381D01*
X10552619Y-6520428D01*
X10543095Y-6529952D01*
X10524048Y-6539476D01*
X10495476Y-6539476D01*
X10676429Y-6539476D02*
X10657381Y-6529952D01*
X10647857Y-6510905D01*
X10647857Y-6339476D01*
X10828810Y-6529952D02*
X10809762Y-6539476D01*
X10771667Y-6539476D01*
X10752619Y-6529952D01*
X10743095Y-6510905D01*
X10743095Y-6434714D01*
X10752619Y-6415667D01*
X10771667Y-6406143D01*
X10809762Y-6406143D01*
X10828810Y-6415667D01*
X10838333Y-6434714D01*
X10838333Y-6453762D01*
X10743095Y-6472809D01*
X10914524Y-6529952D02*
X10933571Y-6539476D01*
X10971667Y-6539476D01*
X10990714Y-6529952D01*
X11000238Y-6510905D01*
X11000238Y-6501381D01*
X10990714Y-6482333D01*
X10971667Y-6472809D01*
X10943095Y-6472809D01*
X10924048Y-6463286D01*
X10914524Y-6444238D01*
X10914524Y-6434714D01*
X10924048Y-6415667D01*
X10943095Y-6406143D01*
X10971667Y-6406143D01*
X10990714Y-6415667D01*
X11066905Y-6615667D02*
X11076429Y-6606143D01*
X11095476Y-6577571D01*
X11105000Y-6558524D01*
X11114524Y-6529952D01*
X11124048Y-6482333D01*
X11124048Y-6444238D01*
X11114524Y-6396619D01*
X11105000Y-6368048D01*
X11095476Y-6349000D01*
X11076429Y-6320428D01*
X11066905Y-6310905D01*
D14*
X6247500Y-6665500D02*
X6247500Y-6760500D01*
X6200000Y-6713000D02*
X6295000Y-6713000D01*
D11*
X6590714Y-6603476D02*
X6609762Y-6603476D01*
X6628809Y-6613000D01*
X6638333Y-6622524D01*
X6647857Y-6641571D01*
X6657381Y-6679667D01*
X6657381Y-6727286D01*
X6647857Y-6765381D01*
X6638333Y-6784428D01*
X6628809Y-6793952D01*
X6609762Y-6803476D01*
X6590714Y-6803476D01*
X6571667Y-6793952D01*
X6562143Y-6784428D01*
X6552619Y-6765381D01*
X6543095Y-6727286D01*
X6543095Y-6679667D01*
X6552619Y-6641571D01*
X6562143Y-6622524D01*
X6571667Y-6613000D01*
X6590714Y-6603476D01*
X6743095Y-6784428D02*
X6752619Y-6793952D01*
X6743095Y-6803476D01*
X6733571Y-6793952D01*
X6743095Y-6784428D01*
X6743095Y-6803476D01*
X6847857Y-6803476D02*
X6885952Y-6803476D01*
X6905000Y-6793952D01*
X6914524Y-6784428D01*
X6933571Y-6755857D01*
X6943095Y-6717762D01*
X6943095Y-6641571D01*
X6933571Y-6622524D01*
X6924048Y-6613000D01*
X6905000Y-6603476D01*
X6866905Y-6603476D01*
X6847857Y-6613000D01*
X6838333Y-6622524D01*
X6828809Y-6641571D01*
X6828809Y-6689190D01*
X6838333Y-6708238D01*
X6847857Y-6717762D01*
X6866905Y-6727286D01*
X6905000Y-6727286D01*
X6924048Y-6717762D01*
X6933571Y-6708238D01*
X6943095Y-6689190D01*
X7124048Y-6603476D02*
X7028809Y-6603476D01*
X7019286Y-6698714D01*
X7028809Y-6689190D01*
X7047857Y-6679667D01*
X7095476Y-6679667D01*
X7114524Y-6689190D01*
X7124048Y-6698714D01*
X7133571Y-6717762D01*
X7133571Y-6765381D01*
X7124048Y-6784428D01*
X7114524Y-6793952D01*
X7095476Y-6803476D01*
X7047857Y-6803476D01*
X7028809Y-6793952D01*
X7019286Y-6784428D01*
X7257381Y-6603476D02*
X7276428Y-6603476D01*
X7295476Y-6613000D01*
X7305000Y-6622524D01*
X7314524Y-6641571D01*
X7324048Y-6679667D01*
X7324048Y-6727286D01*
X7314524Y-6765381D01*
X7305000Y-6784428D01*
X7295476Y-6793952D01*
X7276428Y-6803476D01*
X7257381Y-6803476D01*
X7238333Y-6793952D01*
X7228809Y-6784428D01*
X7219286Y-6765381D01*
X7209762Y-6727286D01*
X7209762Y-6679667D01*
X7219286Y-6641571D01*
X7228809Y-6622524D01*
X7238333Y-6613000D01*
X7257381Y-6603476D01*
X7409762Y-6803476D02*
X7409762Y-6670143D01*
X7409762Y-6689190D02*
X7419286Y-6679667D01*
X7438333Y-6670143D01*
X7466905Y-6670143D01*
X7485952Y-6679667D01*
X7495476Y-6698714D01*
X7495476Y-6803476D01*
X7495476Y-6698714D02*
X7505000Y-6679667D01*
X7524048Y-6670143D01*
X7552619Y-6670143D01*
X7571667Y-6679667D01*
X7581190Y-6698714D01*
X7581190Y-6803476D01*
X7676428Y-6803476D02*
X7676428Y-6670143D01*
X7676428Y-6689190D02*
X7685952Y-6679667D01*
X7705000Y-6670143D01*
X7733571Y-6670143D01*
X7752619Y-6679667D01*
X7762143Y-6698714D01*
X7762143Y-6803476D01*
X7762143Y-6698714D02*
X7771667Y-6679667D01*
X7790714Y-6670143D01*
X7819286Y-6670143D01*
X7838333Y-6679667D01*
X7847857Y-6698714D01*
X7847857Y-6803476D01*
X8238333Y-6593952D02*
X8066905Y-6851095D01*
X8495476Y-6603476D02*
X8514524Y-6603476D01*
X8533571Y-6613000D01*
X8543095Y-6622524D01*
X8552619Y-6641571D01*
X8562143Y-6679667D01*
X8562143Y-6727286D01*
X8552619Y-6765381D01*
X8543095Y-6784428D01*
X8533571Y-6793952D01*
X8514524Y-6803476D01*
X8495476Y-6803476D01*
X8476429Y-6793952D01*
X8466905Y-6784428D01*
X8457381Y-6765381D01*
X8447857Y-6727286D01*
X8447857Y-6679667D01*
X8457381Y-6641571D01*
X8466905Y-6622524D01*
X8476429Y-6613000D01*
X8495476Y-6603476D01*
X8647857Y-6784428D02*
X8657381Y-6793952D01*
X8647857Y-6803476D01*
X8638333Y-6793952D01*
X8647857Y-6784428D01*
X8647857Y-6803476D01*
X8781190Y-6603476D02*
X8800238Y-6603476D01*
X8819286Y-6613000D01*
X8828810Y-6622524D01*
X8838333Y-6641571D01*
X8847857Y-6679667D01*
X8847857Y-6727286D01*
X8838333Y-6765381D01*
X8828810Y-6784428D01*
X8819286Y-6793952D01*
X8800238Y-6803476D01*
X8781190Y-6803476D01*
X8762143Y-6793952D01*
X8752619Y-6784428D01*
X8743095Y-6765381D01*
X8733571Y-6727286D01*
X8733571Y-6679667D01*
X8743095Y-6641571D01*
X8752619Y-6622524D01*
X8762143Y-6613000D01*
X8781190Y-6603476D01*
X8914524Y-6603476D02*
X9038333Y-6603476D01*
X8971667Y-6679667D01*
X9000238Y-6679667D01*
X9019286Y-6689190D01*
X9028810Y-6698714D01*
X9038333Y-6717762D01*
X9038333Y-6765381D01*
X9028810Y-6784428D01*
X9019286Y-6793952D01*
X9000238Y-6803476D01*
X8943095Y-6803476D01*
X8924048Y-6793952D01*
X8914524Y-6784428D01*
X9105000Y-6603476D02*
X9238333Y-6603476D01*
X9152619Y-6803476D01*
X9400238Y-6670143D02*
X9400238Y-6803476D01*
X9352619Y-6593952D02*
X9305000Y-6736809D01*
X9428810Y-6736809D01*
X9495476Y-6603476D02*
X9495476Y-6641571D01*
X9571667Y-6603476D02*
X9571667Y-6641571D01*
X9866905Y-6879667D02*
X9857381Y-6870143D01*
X9838333Y-6841571D01*
X9828810Y-6822524D01*
X9819286Y-6793952D01*
X9809762Y-6746333D01*
X9809762Y-6708238D01*
X9819286Y-6660619D01*
X9828810Y-6632048D01*
X9838333Y-6613000D01*
X9857381Y-6584428D01*
X9866905Y-6574905D01*
X10047857Y-6803476D02*
X9933571Y-6803476D01*
X9990714Y-6803476D02*
X9990714Y-6603476D01*
X9971667Y-6632048D01*
X9952619Y-6651095D01*
X9933571Y-6660619D01*
X10238333Y-6803476D02*
X10124048Y-6803476D01*
X10181190Y-6803476D02*
X10181190Y-6603476D01*
X10162143Y-6632048D01*
X10143095Y-6651095D01*
X10124048Y-6660619D01*
X10476429Y-6803476D02*
X10476429Y-6603476D01*
X10562143Y-6803476D02*
X10562143Y-6698714D01*
X10552619Y-6679667D01*
X10533571Y-6670143D01*
X10505000Y-6670143D01*
X10485952Y-6679667D01*
X10476429Y-6689190D01*
X10685952Y-6803476D02*
X10666905Y-6793952D01*
X10657381Y-6784428D01*
X10647857Y-6765381D01*
X10647857Y-6708238D01*
X10657381Y-6689190D01*
X10666905Y-6679667D01*
X10685952Y-6670143D01*
X10714524Y-6670143D01*
X10733571Y-6679667D01*
X10743095Y-6689190D01*
X10752619Y-6708238D01*
X10752619Y-6765381D01*
X10743095Y-6784428D01*
X10733571Y-6793952D01*
X10714524Y-6803476D01*
X10685952Y-6803476D01*
X10866905Y-6803476D02*
X10847857Y-6793952D01*
X10838333Y-6774905D01*
X10838333Y-6603476D01*
X11019286Y-6793952D02*
X11000238Y-6803476D01*
X10962143Y-6803476D01*
X10943095Y-6793952D01*
X10933571Y-6774905D01*
X10933571Y-6698714D01*
X10943095Y-6679667D01*
X10962143Y-6670143D01*
X11000238Y-6670143D01*
X11019286Y-6679667D01*
X11028810Y-6698714D01*
X11028810Y-6717762D01*
X10933571Y-6736809D01*
X11105000Y-6793952D02*
X11124048Y-6803476D01*
X11162143Y-6803476D01*
X11181190Y-6793952D01*
X11190714Y-6774905D01*
X11190714Y-6765381D01*
X11181190Y-6746333D01*
X11162143Y-6736809D01*
X11133571Y-6736809D01*
X11114524Y-6727286D01*
X11105000Y-6708238D01*
X11105000Y-6698714D01*
X11114524Y-6679667D01*
X11133571Y-6670143D01*
X11162143Y-6670143D01*
X11181190Y-6679667D01*
X11257381Y-6879667D02*
X11266905Y-6870143D01*
X11285952Y-6841571D01*
X11295476Y-6822524D01*
X11305000Y-6793952D01*
X11314524Y-6746333D01*
X11314524Y-6708238D01*
X11305000Y-6660619D01*
X11295476Y-6632048D01*
X11285952Y-6613000D01*
X11266905Y-6584428D01*
X11257381Y-6574905D01*
D10*
X6280356Y-7012356D02*
X6280356Y-6941644D01*
X6209644Y-6941644D01*
X6209644Y-7012356D01*
X6280356Y-7012356D01*
D11*
X6657381Y-7067476D02*
X6543095Y-7067476D01*
X6600238Y-7067476D02*
X6600238Y-6867476D01*
X6581190Y-6896048D01*
X6562143Y-6915095D01*
X6543095Y-6924619D01*
X6743095Y-7048428D02*
X6752619Y-7057952D01*
X6743095Y-7067476D01*
X6733571Y-7057952D01*
X6743095Y-7048428D01*
X6743095Y-7067476D01*
X6876428Y-6867476D02*
X6895476Y-6867476D01*
X6914524Y-6877000D01*
X6924048Y-6886524D01*
X6933571Y-6905571D01*
X6943095Y-6943667D01*
X6943095Y-6991286D01*
X6933571Y-7029381D01*
X6924048Y-7048428D01*
X6914524Y-7057952D01*
X6895476Y-7067476D01*
X6876428Y-7067476D01*
X6857381Y-7057952D01*
X6847857Y-7048428D01*
X6838333Y-7029381D01*
X6828809Y-6991286D01*
X6828809Y-6943667D01*
X6838333Y-6905571D01*
X6847857Y-6886524D01*
X6857381Y-6877000D01*
X6876428Y-6867476D01*
X7066905Y-6867476D02*
X7085952Y-6867476D01*
X7105000Y-6877000D01*
X7114524Y-6886524D01*
X7124048Y-6905571D01*
X7133571Y-6943667D01*
X7133571Y-6991286D01*
X7124048Y-7029381D01*
X7114524Y-7048428D01*
X7105000Y-7057952D01*
X7085952Y-7067476D01*
X7066905Y-7067476D01*
X7047857Y-7057952D01*
X7038333Y-7048428D01*
X7028809Y-7029381D01*
X7019286Y-6991286D01*
X7019286Y-6943667D01*
X7028809Y-6905571D01*
X7038333Y-6886524D01*
X7047857Y-6877000D01*
X7066905Y-6867476D01*
X7257381Y-6867476D02*
X7276428Y-6867476D01*
X7295476Y-6877000D01*
X7305000Y-6886524D01*
X7314524Y-6905571D01*
X7324048Y-6943667D01*
X7324048Y-6991286D01*
X7314524Y-7029381D01*
X7305000Y-7048428D01*
X7295476Y-7057952D01*
X7276428Y-7067476D01*
X7257381Y-7067476D01*
X7238333Y-7057952D01*
X7228809Y-7048428D01*
X7219286Y-7029381D01*
X7209762Y-6991286D01*
X7209762Y-6943667D01*
X7219286Y-6905571D01*
X7228809Y-6886524D01*
X7238333Y-6877000D01*
X7257381Y-6867476D01*
X7409762Y-7067476D02*
X7409762Y-6934143D01*
X7409762Y-6953190D02*
X7419286Y-6943667D01*
X7438333Y-6934143D01*
X7466905Y-6934143D01*
X7485952Y-6943667D01*
X7495476Y-6962714D01*
X7495476Y-7067476D01*
X7495476Y-6962714D02*
X7505000Y-6943667D01*
X7524048Y-6934143D01*
X7552619Y-6934143D01*
X7571667Y-6943667D01*
X7581190Y-6962714D01*
X7581190Y-7067476D01*
X7676428Y-7067476D02*
X7676428Y-6934143D01*
X7676428Y-6953190D02*
X7685952Y-6943667D01*
X7705000Y-6934143D01*
X7733571Y-6934143D01*
X7752619Y-6943667D01*
X7762143Y-6962714D01*
X7762143Y-7067476D01*
X7762143Y-6962714D02*
X7771667Y-6943667D01*
X7790714Y-6934143D01*
X7819286Y-6934143D01*
X7838333Y-6943667D01*
X7847857Y-6962714D01*
X7847857Y-7067476D01*
X8238333Y-6857952D02*
X8066905Y-7115095D01*
X8495476Y-6867476D02*
X8514524Y-6867476D01*
X8533571Y-6877000D01*
X8543095Y-6886524D01*
X8552619Y-6905571D01*
X8562143Y-6943667D01*
X8562143Y-6991286D01*
X8552619Y-7029381D01*
X8543095Y-7048428D01*
X8533571Y-7057952D01*
X8514524Y-7067476D01*
X8495476Y-7067476D01*
X8476429Y-7057952D01*
X8466905Y-7048428D01*
X8457381Y-7029381D01*
X8447857Y-6991286D01*
X8447857Y-6943667D01*
X8457381Y-6905571D01*
X8466905Y-6886524D01*
X8476429Y-6877000D01*
X8495476Y-6867476D01*
X8647857Y-7048428D02*
X8657381Y-7057952D01*
X8647857Y-7067476D01*
X8638333Y-7057952D01*
X8647857Y-7048428D01*
X8647857Y-7067476D01*
X8781190Y-6867476D02*
X8800238Y-6867476D01*
X8819286Y-6877000D01*
X8828810Y-6886524D01*
X8838333Y-6905571D01*
X8847857Y-6943667D01*
X8847857Y-6991286D01*
X8838333Y-7029381D01*
X8828810Y-7048428D01*
X8819286Y-7057952D01*
X8800238Y-7067476D01*
X8781190Y-7067476D01*
X8762143Y-7057952D01*
X8752619Y-7048428D01*
X8743095Y-7029381D01*
X8733571Y-6991286D01*
X8733571Y-6943667D01*
X8743095Y-6905571D01*
X8752619Y-6886524D01*
X8762143Y-6877000D01*
X8781190Y-6867476D01*
X8914524Y-6867476D02*
X9038333Y-6867476D01*
X8971667Y-6943667D01*
X9000238Y-6943667D01*
X9019286Y-6953190D01*
X9028810Y-6962714D01*
X9038333Y-6981762D01*
X9038333Y-7029381D01*
X9028810Y-7048428D01*
X9019286Y-7057952D01*
X9000238Y-7067476D01*
X8943095Y-7067476D01*
X8924048Y-7057952D01*
X8914524Y-7048428D01*
X9133571Y-7067476D02*
X9171667Y-7067476D01*
X9190714Y-7057952D01*
X9200238Y-7048428D01*
X9219286Y-7019857D01*
X9228810Y-6981762D01*
X9228810Y-6905571D01*
X9219286Y-6886524D01*
X9209762Y-6877000D01*
X9190714Y-6867476D01*
X9152619Y-6867476D01*
X9133571Y-6877000D01*
X9124048Y-6886524D01*
X9114524Y-6905571D01*
X9114524Y-6953190D01*
X9124048Y-6972238D01*
X9133571Y-6981762D01*
X9152619Y-6991286D01*
X9190714Y-6991286D01*
X9209762Y-6981762D01*
X9219286Y-6972238D01*
X9228810Y-6953190D01*
X9400238Y-6934143D02*
X9400238Y-7067476D01*
X9352619Y-6857952D02*
X9305000Y-7000809D01*
X9428810Y-7000809D01*
X9495476Y-6867476D02*
X9495476Y-6905571D01*
X9571667Y-6867476D02*
X9571667Y-6905571D01*
X9866905Y-7143667D02*
X9857381Y-7134143D01*
X9838333Y-7105571D01*
X9828810Y-7086524D01*
X9819286Y-7057952D01*
X9809762Y-7010333D01*
X9809762Y-6972238D01*
X9819286Y-6924619D01*
X9828810Y-6896048D01*
X9838333Y-6877000D01*
X9857381Y-6848428D01*
X9866905Y-6838905D01*
X10047857Y-7067476D02*
X9933571Y-7067476D01*
X9990714Y-7067476D02*
X9990714Y-6867476D01*
X9971667Y-6896048D01*
X9952619Y-6915095D01*
X9933571Y-6924619D01*
X10219286Y-6934143D02*
X10219286Y-7067476D01*
X10171667Y-6857952D02*
X10124048Y-7000809D01*
X10247857Y-7000809D01*
X10476429Y-7067476D02*
X10476429Y-6867476D01*
X10562143Y-7067476D02*
X10562143Y-6962714D01*
X10552619Y-6943667D01*
X10533571Y-6934143D01*
X10505000Y-6934143D01*
X10485952Y-6943667D01*
X10476429Y-6953190D01*
X10685952Y-7067476D02*
X10666905Y-7057952D01*
X10657381Y-7048428D01*
X10647857Y-7029381D01*
X10647857Y-6972238D01*
X10657381Y-6953190D01*
X10666905Y-6943667D01*
X10685952Y-6934143D01*
X10714524Y-6934143D01*
X10733571Y-6943667D01*
X10743095Y-6953190D01*
X10752619Y-6972238D01*
X10752619Y-7029381D01*
X10743095Y-7048428D01*
X10733571Y-7057952D01*
X10714524Y-7067476D01*
X10685952Y-7067476D01*
X10866905Y-7067476D02*
X10847857Y-7057952D01*
X10838333Y-7038905D01*
X10838333Y-6867476D01*
X11019286Y-7057952D02*
X11000238Y-7067476D01*
X10962143Y-7067476D01*
X10943095Y-7057952D01*
X10933571Y-7038905D01*
X10933571Y-6962714D01*
X10943095Y-6943667D01*
X10962143Y-6934143D01*
X11000238Y-6934143D01*
X11019286Y-6943667D01*
X11028810Y-6962714D01*
X11028810Y-6981762D01*
X10933571Y-7000809D01*
X11105000Y-7057952D02*
X11124048Y-7067476D01*
X11162143Y-7067476D01*
X11181190Y-7057952D01*
X11190714Y-7038905D01*
X11190714Y-7029381D01*
X11181190Y-7010333D01*
X11162143Y-7000809D01*
X11133571Y-7000809D01*
X11114524Y-6991286D01*
X11105000Y-6972238D01*
X11105000Y-6962714D01*
X11114524Y-6943667D01*
X11133571Y-6934143D01*
X11162143Y-6934143D01*
X11181190Y-6943667D01*
X11257381Y-7143667D02*
X11266905Y-7134143D01*
X11285952Y-7105571D01*
X11295476Y-7086524D01*
X11305000Y-7057952D01*
X11314524Y-7010333D01*
X11314524Y-6972238D01*
X11305000Y-6924619D01*
X11295476Y-6896048D01*
X11285952Y-6877000D01*
X11266905Y-6848428D01*
X11257381Y-6838905D01*
D15*
X6240000Y-7296000D02*
X6295000Y-7241000D01*
X6240000Y-7186000D01*
X6185000Y-7241000D01*
X6240000Y-7296000D01*
D11*
X6657381Y-7331476D02*
X6543095Y-7331476D01*
X6600238Y-7331476D02*
X6600238Y-7131476D01*
X6581190Y-7160048D01*
X6562143Y-7179095D01*
X6543095Y-7188619D01*
X6743095Y-7312428D02*
X6752619Y-7321952D01*
X6743095Y-7331476D01*
X6733571Y-7321952D01*
X6743095Y-7312428D01*
X6743095Y-7331476D01*
X6943095Y-7331476D02*
X6828809Y-7331476D01*
X6885952Y-7331476D02*
X6885952Y-7131476D01*
X6866905Y-7160048D01*
X6847857Y-7179095D01*
X6828809Y-7188619D01*
X7066905Y-7131476D02*
X7085952Y-7131476D01*
X7105000Y-7141000D01*
X7114524Y-7150524D01*
X7124048Y-7169571D01*
X7133571Y-7207667D01*
X7133571Y-7255286D01*
X7124048Y-7293381D01*
X7114524Y-7312428D01*
X7105000Y-7321952D01*
X7085952Y-7331476D01*
X7066905Y-7331476D01*
X7047857Y-7321952D01*
X7038333Y-7312428D01*
X7028809Y-7293381D01*
X7019286Y-7255286D01*
X7019286Y-7207667D01*
X7028809Y-7169571D01*
X7038333Y-7150524D01*
X7047857Y-7141000D01*
X7066905Y-7131476D01*
X7257381Y-7131476D02*
X7276428Y-7131476D01*
X7295476Y-7141000D01*
X7305000Y-7150524D01*
X7314524Y-7169571D01*
X7324048Y-7207667D01*
X7324048Y-7255286D01*
X7314524Y-7293381D01*
X7305000Y-7312428D01*
X7295476Y-7321952D01*
X7276428Y-7331476D01*
X7257381Y-7331476D01*
X7238333Y-7321952D01*
X7228809Y-7312428D01*
X7219286Y-7293381D01*
X7209762Y-7255286D01*
X7209762Y-7207667D01*
X7219286Y-7169571D01*
X7228809Y-7150524D01*
X7238333Y-7141000D01*
X7257381Y-7131476D01*
X7409762Y-7331476D02*
X7409762Y-7198143D01*
X7409762Y-7217190D02*
X7419286Y-7207667D01*
X7438333Y-7198143D01*
X7466905Y-7198143D01*
X7485952Y-7207667D01*
X7495476Y-7226714D01*
X7495476Y-7331476D01*
X7495476Y-7226714D02*
X7505000Y-7207667D01*
X7524048Y-7198143D01*
X7552619Y-7198143D01*
X7571667Y-7207667D01*
X7581190Y-7226714D01*
X7581190Y-7331476D01*
X7676428Y-7331476D02*
X7676428Y-7198143D01*
X7676428Y-7217190D02*
X7685952Y-7207667D01*
X7705000Y-7198143D01*
X7733571Y-7198143D01*
X7752619Y-7207667D01*
X7762143Y-7226714D01*
X7762143Y-7331476D01*
X7762143Y-7226714D02*
X7771667Y-7207667D01*
X7790714Y-7198143D01*
X7819286Y-7198143D01*
X7838333Y-7207667D01*
X7847857Y-7226714D01*
X7847857Y-7331476D01*
X8238333Y-7121952D02*
X8066905Y-7379095D01*
X8495476Y-7131476D02*
X8514524Y-7131476D01*
X8533571Y-7141000D01*
X8543095Y-7150524D01*
X8552619Y-7169571D01*
X8562143Y-7207667D01*
X8562143Y-7255286D01*
X8552619Y-7293381D01*
X8543095Y-7312428D01*
X8533571Y-7321952D01*
X8514524Y-7331476D01*
X8495476Y-7331476D01*
X8476429Y-7321952D01*
X8466905Y-7312428D01*
X8457381Y-7293381D01*
X8447857Y-7255286D01*
X8447857Y-7207667D01*
X8457381Y-7169571D01*
X8466905Y-7150524D01*
X8476429Y-7141000D01*
X8495476Y-7131476D01*
X8647857Y-7312428D02*
X8657381Y-7321952D01*
X8647857Y-7331476D01*
X8638333Y-7321952D01*
X8647857Y-7312428D01*
X8647857Y-7331476D01*
X8781190Y-7131476D02*
X8800238Y-7131476D01*
X8819286Y-7141000D01*
X8828810Y-7150524D01*
X8838333Y-7169571D01*
X8847857Y-7207667D01*
X8847857Y-7255286D01*
X8838333Y-7293381D01*
X8828810Y-7312428D01*
X8819286Y-7321952D01*
X8800238Y-7331476D01*
X8781190Y-7331476D01*
X8762143Y-7321952D01*
X8752619Y-7312428D01*
X8743095Y-7293381D01*
X8733571Y-7255286D01*
X8733571Y-7207667D01*
X8743095Y-7169571D01*
X8752619Y-7150524D01*
X8762143Y-7141000D01*
X8781190Y-7131476D01*
X9019286Y-7198143D02*
X9019286Y-7331476D01*
X8971667Y-7121952D02*
X8924048Y-7264809D01*
X9047857Y-7264809D01*
X9105000Y-7131476D02*
X9228810Y-7131476D01*
X9162143Y-7207667D01*
X9190714Y-7207667D01*
X9209762Y-7217190D01*
X9219286Y-7226714D01*
X9228810Y-7245762D01*
X9228810Y-7293381D01*
X9219286Y-7312428D01*
X9209762Y-7321952D01*
X9190714Y-7331476D01*
X9133571Y-7331476D01*
X9114524Y-7321952D01*
X9105000Y-7312428D01*
X9295476Y-7131476D02*
X9419286Y-7131476D01*
X9352619Y-7207667D01*
X9381190Y-7207667D01*
X9400238Y-7217190D01*
X9409762Y-7226714D01*
X9419286Y-7245762D01*
X9419286Y-7293381D01*
X9409762Y-7312428D01*
X9400238Y-7321952D01*
X9381190Y-7331476D01*
X9324048Y-7331476D01*
X9305000Y-7321952D01*
X9295476Y-7312428D01*
X9495476Y-7131476D02*
X9495476Y-7169571D01*
X9571667Y-7131476D02*
X9571667Y-7169571D01*
X9866905Y-7407667D02*
X9857381Y-7398143D01*
X9838333Y-7369571D01*
X9828810Y-7350524D01*
X9819286Y-7321952D01*
X9809762Y-7274333D01*
X9809762Y-7236238D01*
X9819286Y-7188619D01*
X9828810Y-7160048D01*
X9838333Y-7141000D01*
X9857381Y-7112428D01*
X9866905Y-7102905D01*
X10028810Y-7198143D02*
X10028810Y-7331476D01*
X9981190Y-7121952D02*
X9933571Y-7264809D01*
X10057381Y-7264809D01*
X10285952Y-7331476D02*
X10285952Y-7131476D01*
X10371667Y-7331476D02*
X10371667Y-7226714D01*
X10362143Y-7207667D01*
X10343095Y-7198143D01*
X10314524Y-7198143D01*
X10295476Y-7207667D01*
X10285952Y-7217190D01*
X10495476Y-7331476D02*
X10476429Y-7321952D01*
X10466905Y-7312428D01*
X10457381Y-7293381D01*
X10457381Y-7236238D01*
X10466905Y-7217190D01*
X10476429Y-7207667D01*
X10495476Y-7198143D01*
X10524048Y-7198143D01*
X10543095Y-7207667D01*
X10552619Y-7217190D01*
X10562143Y-7236238D01*
X10562143Y-7293381D01*
X10552619Y-7312428D01*
X10543095Y-7321952D01*
X10524048Y-7331476D01*
X10495476Y-7331476D01*
X10676429Y-7331476D02*
X10657381Y-7321952D01*
X10647857Y-7302905D01*
X10647857Y-7131476D01*
X10828810Y-7321952D02*
X10809762Y-7331476D01*
X10771667Y-7331476D01*
X10752619Y-7321952D01*
X10743095Y-7302905D01*
X10743095Y-7226714D01*
X10752619Y-7207667D01*
X10771667Y-7198143D01*
X10809762Y-7198143D01*
X10828810Y-7207667D01*
X10838333Y-7226714D01*
X10838333Y-7245762D01*
X10743095Y-7264809D01*
X10914524Y-7321952D02*
X10933571Y-7331476D01*
X10971667Y-7331476D01*
X10990714Y-7321952D01*
X11000238Y-7302905D01*
X11000238Y-7293381D01*
X10990714Y-7274333D01*
X10971667Y-7264809D01*
X10943095Y-7264809D01*
X10924048Y-7255286D01*
X10914524Y-7236238D01*
X10914524Y-7226714D01*
X10924048Y-7207667D01*
X10943095Y-7198143D01*
X10971667Y-7198143D01*
X10990714Y-7207667D01*
X11066905Y-7407667D02*
X11076429Y-7398143D01*
X11095476Y-7369571D01*
X11105000Y-7350524D01*
X11114524Y-7321952D01*
X11124048Y-7274333D01*
X11124048Y-7236238D01*
X11114524Y-7188619D01*
X11105000Y-7160048D01*
X11095476Y-7141000D01*
X11076429Y-7112428D01*
X11066905Y-7102905D01*
D16*
X6155000Y-7435000D02*
X6295000Y-7575000D01*
X6295000Y-7435000D02*
X6155000Y-7575000D01*
X6295000Y-7505000D02*
G75*
G03*
X6295000Y-7505000I-70000J0D01*
G01*
D11*
X6657381Y-7595476D02*
X6543095Y-7595476D01*
X6600238Y-7595476D02*
X6600238Y-7395476D01*
X6581190Y-7424048D01*
X6562143Y-7443095D01*
X6543095Y-7452619D01*
X6743095Y-7576428D02*
X6752619Y-7585952D01*
X6743095Y-7595476D01*
X6733571Y-7585952D01*
X6743095Y-7576428D01*
X6743095Y-7595476D01*
X6924048Y-7462143D02*
X6924048Y-7595476D01*
X6876428Y-7385952D02*
X6828809Y-7528809D01*
X6952619Y-7528809D01*
X7066905Y-7395476D02*
X7085952Y-7395476D01*
X7105000Y-7405000D01*
X7114524Y-7414524D01*
X7124048Y-7433571D01*
X7133571Y-7471667D01*
X7133571Y-7519286D01*
X7124048Y-7557381D01*
X7114524Y-7576428D01*
X7105000Y-7585952D01*
X7085952Y-7595476D01*
X7066905Y-7595476D01*
X7047857Y-7585952D01*
X7038333Y-7576428D01*
X7028809Y-7557381D01*
X7019286Y-7519286D01*
X7019286Y-7471667D01*
X7028809Y-7433571D01*
X7038333Y-7414524D01*
X7047857Y-7405000D01*
X7066905Y-7395476D01*
X7257381Y-7395476D02*
X7276428Y-7395476D01*
X7295476Y-7405000D01*
X7305000Y-7414524D01*
X7314524Y-7433571D01*
X7324048Y-7471667D01*
X7324048Y-7519286D01*
X7314524Y-7557381D01*
X7305000Y-7576428D01*
X7295476Y-7585952D01*
X7276428Y-7595476D01*
X7257381Y-7595476D01*
X7238333Y-7585952D01*
X7228809Y-7576428D01*
X7219286Y-7557381D01*
X7209762Y-7519286D01*
X7209762Y-7471667D01*
X7219286Y-7433571D01*
X7228809Y-7414524D01*
X7238333Y-7405000D01*
X7257381Y-7395476D01*
X7409762Y-7595476D02*
X7409762Y-7462143D01*
X7409762Y-7481190D02*
X7419286Y-7471667D01*
X7438333Y-7462143D01*
X7466905Y-7462143D01*
X7485952Y-7471667D01*
X7495476Y-7490714D01*
X7495476Y-7595476D01*
X7495476Y-7490714D02*
X7505000Y-7471667D01*
X7524048Y-7462143D01*
X7552619Y-7462143D01*
X7571667Y-7471667D01*
X7581190Y-7490714D01*
X7581190Y-7595476D01*
X7676428Y-7595476D02*
X7676428Y-7462143D01*
X7676428Y-7481190D02*
X7685952Y-7471667D01*
X7705000Y-7462143D01*
X7733571Y-7462143D01*
X7752619Y-7471667D01*
X7762143Y-7490714D01*
X7762143Y-7595476D01*
X7762143Y-7490714D02*
X7771667Y-7471667D01*
X7790714Y-7462143D01*
X7819286Y-7462143D01*
X7838333Y-7471667D01*
X7847857Y-7490714D01*
X7847857Y-7595476D01*
X8238333Y-7385952D02*
X8066905Y-7643095D01*
X8495476Y-7395476D02*
X8514524Y-7395476D01*
X8533571Y-7405000D01*
X8543095Y-7414524D01*
X8552619Y-7433571D01*
X8562143Y-7471667D01*
X8562143Y-7519286D01*
X8552619Y-7557381D01*
X8543095Y-7576428D01*
X8533571Y-7585952D01*
X8514524Y-7595476D01*
X8495476Y-7595476D01*
X8476429Y-7585952D01*
X8466905Y-7576428D01*
X8457381Y-7557381D01*
X8447857Y-7519286D01*
X8447857Y-7471667D01*
X8457381Y-7433571D01*
X8466905Y-7414524D01*
X8476429Y-7405000D01*
X8495476Y-7395476D01*
X8647857Y-7576428D02*
X8657381Y-7585952D01*
X8647857Y-7595476D01*
X8638333Y-7585952D01*
X8647857Y-7576428D01*
X8647857Y-7595476D01*
X8781190Y-7395476D02*
X8800238Y-7395476D01*
X8819286Y-7405000D01*
X8828810Y-7414524D01*
X8838333Y-7433571D01*
X8847857Y-7471667D01*
X8847857Y-7519286D01*
X8838333Y-7557381D01*
X8828810Y-7576428D01*
X8819286Y-7585952D01*
X8800238Y-7595476D01*
X8781190Y-7595476D01*
X8762143Y-7585952D01*
X8752619Y-7576428D01*
X8743095Y-7557381D01*
X8733571Y-7519286D01*
X8733571Y-7471667D01*
X8743095Y-7433571D01*
X8752619Y-7414524D01*
X8762143Y-7405000D01*
X8781190Y-7395476D01*
X9028810Y-7395476D02*
X8933571Y-7395476D01*
X8924048Y-7490714D01*
X8933571Y-7481190D01*
X8952619Y-7471667D01*
X9000238Y-7471667D01*
X9019286Y-7481190D01*
X9028810Y-7490714D01*
X9038333Y-7509762D01*
X9038333Y-7557381D01*
X9028810Y-7576428D01*
X9019286Y-7585952D01*
X9000238Y-7595476D01*
X8952619Y-7595476D01*
X8933571Y-7585952D01*
X8924048Y-7576428D01*
X9219286Y-7395476D02*
X9124048Y-7395476D01*
X9114524Y-7490714D01*
X9124048Y-7481190D01*
X9143095Y-7471667D01*
X9190714Y-7471667D01*
X9209762Y-7481190D01*
X9219286Y-7490714D01*
X9228810Y-7509762D01*
X9228810Y-7557381D01*
X9219286Y-7576428D01*
X9209762Y-7585952D01*
X9190714Y-7595476D01*
X9143095Y-7595476D01*
X9124048Y-7585952D01*
X9114524Y-7576428D01*
X9419286Y-7595476D02*
X9305000Y-7595476D01*
X9362143Y-7595476D02*
X9362143Y-7395476D01*
X9343095Y-7424048D01*
X9324048Y-7443095D01*
X9305000Y-7452619D01*
X9495476Y-7395476D02*
X9495476Y-7433571D01*
X9571667Y-7395476D02*
X9571667Y-7433571D01*
X9866905Y-7671667D02*
X9857381Y-7662143D01*
X9838333Y-7633571D01*
X9828810Y-7614524D01*
X9819286Y-7585952D01*
X9809762Y-7538333D01*
X9809762Y-7500238D01*
X9819286Y-7452619D01*
X9828810Y-7424048D01*
X9838333Y-7405000D01*
X9857381Y-7376428D01*
X9866905Y-7366905D01*
X9933571Y-7414524D02*
X9943095Y-7405000D01*
X9962143Y-7395476D01*
X10009762Y-7395476D01*
X10028810Y-7405000D01*
X10038333Y-7414524D01*
X10047857Y-7433571D01*
X10047857Y-7452619D01*
X10038333Y-7481190D01*
X9924048Y-7595476D01*
X10047857Y-7595476D01*
X10285952Y-7595476D02*
X10285952Y-7395476D01*
X10371667Y-7595476D02*
X10371667Y-7490714D01*
X10362143Y-7471667D01*
X10343095Y-7462143D01*
X10314524Y-7462143D01*
X10295476Y-7471667D01*
X10285952Y-7481190D01*
X10495476Y-7595476D02*
X10476429Y-7585952D01*
X10466905Y-7576428D01*
X10457381Y-7557381D01*
X10457381Y-7500238D01*
X10466905Y-7481190D01*
X10476429Y-7471667D01*
X10495476Y-7462143D01*
X10524048Y-7462143D01*
X10543095Y-7471667D01*
X10552619Y-7481190D01*
X10562143Y-7500238D01*
X10562143Y-7557381D01*
X10552619Y-7576428D01*
X10543095Y-7585952D01*
X10524048Y-7595476D01*
X10495476Y-7595476D01*
X10676429Y-7595476D02*
X10657381Y-7585952D01*
X10647857Y-7566905D01*
X10647857Y-7395476D01*
X10828810Y-7585952D02*
X10809762Y-7595476D01*
X10771667Y-7595476D01*
X10752619Y-7585952D01*
X10743095Y-7566905D01*
X10743095Y-7490714D01*
X10752619Y-7471667D01*
X10771667Y-7462143D01*
X10809762Y-7462143D01*
X10828810Y-7471667D01*
X10838333Y-7490714D01*
X10838333Y-7509762D01*
X10743095Y-7528809D01*
X10914524Y-7585952D02*
X10933571Y-7595476D01*
X10971667Y-7595476D01*
X10990714Y-7585952D01*
X11000238Y-7566905D01*
X11000238Y-7557381D01*
X10990714Y-7538333D01*
X10971667Y-7528809D01*
X10943095Y-7528809D01*
X10924048Y-7519286D01*
X10914524Y-7500238D01*
X10914524Y-7490714D01*
X10924048Y-7471667D01*
X10943095Y-7462143D01*
X10971667Y-7462143D01*
X10990714Y-7471667D01*
X11066905Y-7671667D02*
X11076429Y-7662143D01*
X11095476Y-7633571D01*
X11105000Y-7614524D01*
X11114524Y-7585952D01*
X11124048Y-7538333D01*
X11124048Y-7500238D01*
X11114524Y-7452619D01*
X11105000Y-7424048D01*
X11095476Y-7405000D01*
X11076429Y-7376428D01*
X11066905Y-7366905D01*
M02*
