%TF.GenerationSoftware,KiCad,Pcbnew,6.0.11-2627ca5db0~126~ubuntu22.04.1*%
%TF.CreationDate,2023-02-15T16:19:53+03:00*%
%TF.ProjectId,train_barrier,74726169-6e5f-4626-9172-726965722e6b,rev?*%
%TF.SameCoordinates,Original*%
%TF.FileFunction,Soldermask,Top*%
%TF.FilePolarity,Negative*%
%FSLAX46Y46*%
G04 Gerber Fmt 4.6, Leading zero omitted, Abs format (unit mm)*
G04 Created by KiCad (PCBNEW 6.0.11-2627ca5db0~126~ubuntu22.04.1) date 2023-02-15 16:19:53*
%MOMM*%
%LPD*%
G01*
G04 APERTURE LIST*
G04 Aperture macros list*
%AMRoundRect*
0 Rectangle with rounded corners*
0 $1 Rounding radius*
0 $2 $3 $4 $5 $6 $7 $8 $9 X,Y pos of 4 corners*
0 Add a 4 corners polygon primitive as box body*
4,1,4,$2,$3,$4,$5,$6,$7,$8,$9,$2,$3,0*
0 Add four circle primitives for the rounded corners*
1,1,$1+$1,$2,$3*
1,1,$1+$1,$4,$5*
1,1,$1+$1,$6,$7*
1,1,$1+$1,$8,$9*
0 Add four rect primitives between the rounded corners*
20,1,$1+$1,$2,$3,$4,$5,0*
20,1,$1+$1,$4,$5,$6,$7,0*
20,1,$1+$1,$6,$7,$8,$9,0*
20,1,$1+$1,$8,$9,$2,$3,0*%
G04 Aperture macros list end*
%ADD10RoundRect,0.225000X-0.250000X0.225000X-0.250000X-0.225000X0.250000X-0.225000X0.250000X0.225000X0*%
%ADD11RoundRect,0.250000X0.262500X0.450000X-0.262500X0.450000X-0.262500X-0.450000X0.262500X-0.450000X0*%
%ADD12RoundRect,0.250000X-0.600000X-0.725000X0.600000X-0.725000X0.600000X0.725000X-0.600000X0.725000X0*%
%ADD13O,1.700000X1.950000*%
%ADD14RoundRect,0.250000X0.725000X-0.600000X0.725000X0.600000X-0.725000X0.600000X-0.725000X-0.600000X0*%
%ADD15O,1.950000X1.700000*%
%ADD16R,1.600000X1.600000*%
%ADD17C,1.600000*%
%ADD18RoundRect,0.250000X-0.262500X-0.450000X0.262500X-0.450000X0.262500X0.450000X-0.262500X0.450000X0*%
%ADD19C,1.500000*%
%ADD20R,1.800000X2.500000*%
%ADD21RoundRect,0.150000X-0.587500X-0.150000X0.587500X-0.150000X0.587500X0.150000X-0.587500X0.150000X0*%
%ADD22R,1.700000X1.700000*%
%ADD23O,1.700000X1.700000*%
%ADD24C,3.200000*%
%ADD25R,2.800000X2.800000*%
%ADD26O,2.800000X2.800000*%
%ADD27RoundRect,0.250001X-0.899999X-0.899999X0.899999X-0.899999X0.899999X0.899999X-0.899999X0.899999X0*%
%ADD28C,2.300000*%
%ADD29RoundRect,0.250001X0.799999X0.799999X-0.799999X0.799999X-0.799999X-0.799999X0.799999X-0.799999X0*%
%ADD30C,2.100000*%
G04 APERTURE END LIST*
D10*
%TO.C,C3*%
X97600000Y-28225000D03*
X97600000Y-29775000D03*
%TD*%
D11*
%TO.C,R6*%
X126712500Y-26800000D03*
X124887500Y-26800000D03*
%TD*%
D12*
%TO.C,SW1*%
X77400000Y-51000000D03*
D13*
X79900000Y-51000000D03*
X82400000Y-51000000D03*
X84900000Y-51000000D03*
%TD*%
D10*
%TO.C,C5*%
X78800000Y-32025000D03*
X78800000Y-33575000D03*
%TD*%
D14*
%TO.C,M1*%
X127075000Y-50900000D03*
D15*
X127075000Y-48400000D03*
X127075000Y-45900000D03*
%TD*%
D10*
%TO.C,C2*%
X103000000Y-28225000D03*
X103000000Y-29775000D03*
%TD*%
D16*
%TO.C,C6*%
X112200000Y-51955302D03*
D17*
X112200000Y-48455302D03*
%TD*%
D18*
%TO.C,R10*%
X112837500Y-40750000D03*
X114662500Y-40750000D03*
%TD*%
D19*
%TO.C,U1*%
X65850000Y-28200000D03*
X65850000Y-45200000D03*
X105350000Y-45200000D03*
X105350000Y-28200000D03*
%TD*%
D20*
%TO.C,D3*%
X127400000Y-37200000D03*
X127400000Y-41200000D03*
%TD*%
D21*
%TO.C,Q5*%
X109462500Y-31850000D03*
X109462500Y-33750000D03*
X111337500Y-32800000D03*
%TD*%
D22*
%TO.C,J1*%
X102325000Y-49800000D03*
D23*
X102325000Y-52340000D03*
X99785000Y-49800000D03*
X99785000Y-52340000D03*
X97245000Y-49800000D03*
X97245000Y-52340000D03*
X94705000Y-49800000D03*
X94705000Y-52340000D03*
X92165000Y-49800000D03*
X92165000Y-52340000D03*
%TD*%
D14*
%TO.C,D2*%
X119750000Y-36250000D03*
D15*
X119750000Y-33750000D03*
X119750000Y-31250000D03*
X119750000Y-28750000D03*
%TD*%
D24*
%TO.C,H1*%
X127400000Y-31800000D03*
%TD*%
D25*
%TO.C,D1*%
X120600000Y-45503712D03*
D26*
X120600000Y-50583712D03*
%TD*%
D21*
%TO.C,Q3*%
X109462500Y-27250000D03*
X109462500Y-29150000D03*
X111337500Y-28200000D03*
%TD*%
D27*
%TO.C,BT1*%
X66200000Y-52600000D03*
D28*
X71000000Y-52600000D03*
%TD*%
D16*
%TO.C,C1*%
X100400000Y-28192047D03*
D17*
X100400000Y-33192047D03*
%TD*%
D29*
%TO.C,LS1*%
X114600000Y-43400000D03*
D30*
X110000000Y-43400000D03*
%TD*%
M02*
