M48
; DRILL file {KiCad 6.0.11-2627ca5db0~126~ubuntu22.04.1} date Ср 15 фев 2023 16:19:56
; FORMAT={-:-/ absolute / inch / decimal}
; #@! TF.CreationDate,2023-02-15T16:19:56+03:00
; #@! TF.GenerationSoftware,Kicad,Pcbnew,6.0.11-2627ca5db0~126~ubuntu22.04.1
; #@! TF.FileFunction,Plated,1,2,PTH
FMAT,2
INCH
; #@! TA.AperFunction,Plated,PTH,ViaDrill
T1C0.0157
; #@! TA.AperFunction,Plated,PTH,ComponentDrill
T2C0.0315
; #@! TA.AperFunction,Plated,PTH,ComponentDrill
T3C0.0374
; #@! TA.AperFunction,Plated,PTH,ComponentDrill
T4C0.0394
; #@! TA.AperFunction,Plated,PTH,ComponentDrill
T5C0.0433
; #@! TA.AperFunction,Plated,PTH,ComponentDrill
T6C0.0551
%
G90
G05
T1
X2.7992Y-1.3937
X3.0379Y-1.3622
X3.0866Y-1.4252
X3.1969Y-1.2598
X3.3543Y-1.6142
X3.4926Y-1.1855
X3.748Y-1.3622
X3.748Y-1.5197
X3.9459Y-1.1722
X4.2421Y-1.1476
T2
X3.9528Y-1.1099
X3.9528Y-1.3068
X4.4173Y-1.9077
X4.4173Y-2.0455
T3
X3.0472Y-2.0079
X3.1457Y-2.0079
X3.2441Y-2.0079
X3.3425Y-2.0079
X4.7146Y-1.1319
X4.7146Y-1.2303
X4.7146Y-1.3287
X4.7146Y-1.4272
X5.003Y-1.8071
X5.003Y-1.9055
X5.003Y-2.0039
T4
X2.5925Y-1.1102
X2.5925Y-1.7795
X3.6285Y-1.9606
X3.6285Y-2.0606
X3.7285Y-1.9606
X3.7285Y-2.0606
X3.8285Y-1.9606
X3.8285Y-2.0606
X3.9285Y-1.9606
X3.9285Y-2.0606
X4.0285Y-1.9606
X4.0285Y-2.0606
X4.1476Y-1.1102
X4.1476Y-1.7795
T5
X2.6063Y-2.0709
X2.7953Y-2.0709
X4.3307Y-1.7087
X4.5118Y-1.7087
T6
X4.748Y-1.7915
X4.748Y-1.9915
T0
M30
